<svg width="75" height="75" viewBox="0 0 75 75" fill="none" xmlns="http://www.w3.org/2000/svg">
<path d="M60 75H45C44.31 75 43.75 74.44 43.75 73.75V13.75C43.75 13.06 44.31 12.5 45 12.5H60C60.69 12.5 61.25 13.06 61.25 13.75V73.75C61.25 74.44 60.69 75 60 75ZM46.25 72.5H58.75V15H46.25V72.5Z" fill="white"/>
<path d="M68.75 75H60C59.31 75 58.75 74.44 58.75 73.75V37.5C58.75 36.81 59.31 36.25 60 36.25H68.75C69.44 36.25 70 36.81 70 37.5V73.75C70 74.44 69.44 75 68.75 75ZM61.25 72.5H67.5V38.75H61.25V72.5Z" fill="white"/>
<path d="M45 62.5H35C34.31 62.5 33.75 61.94 33.75 61.25V32.5C33.75 31.81 34.31 31.25 35 31.25H45C45.69 31.25 46.25 31.81 46.25 32.5V61.25C46.25 61.94 45.69 62.5 45 62.5ZM36.25 60H43.75V33.75H36.25V60Z" fill="white"/>
<path d="M25 75H7.5C6.81 75 6.25 74.44 6.25 73.75V23.75C6.25 23.06 6.81 22.5 7.5 22.5H25C25.69 22.5 26.25 23.06 26.25 23.75V73.75C26.25 74.44 25.69 75 25 75ZM8.75 72.5H23.75V25H8.75V72.5Z" fill="white"/>
<path d="M22.5 25H10C9.31 25 8.75 24.44 8.75 23.75V16.25C8.75 15.56 9.31 15 10 15H22.5C23.19 15 23.75 15.56 23.75 16.25V23.75C23.75 24.44 23.19 25 22.5 25ZM11.25 22.5H21.25V17.5H11.25V22.5Z" fill="white"/>
<path d="M45 75H25C24.31 75 23.75 74.44 23.75 73.75V61.25C23.75 60.56 24.31 60 25 60H45C45.69 60 46.25 60.56 46.25 61.25V73.75C46.25 74.44 45.69 75 45 75ZM26.25 72.5H43.75V62.5H26.25V72.5Z" fill="white"/>
<path d="M73.75 75H1.25C0.56 75 0 74.44 0 73.75C0 73.06 0.56 72.5 1.25 72.5H73.75C74.44 72.5 75 73.06 75 73.75C75 74.44 74.44 75 73.75 75Z" fill="white"/>
<path d="M20 17.5H12.5C11.81 17.5 11.25 16.94 11.25 16.25V12.5C11.25 9.7425 13.4925 7.5 16.25 7.5C19.0075 7.5 21.25 9.7425 21.25 12.5V16.25C21.25 16.94 20.69 17.5 20 17.5ZM13.75 15H18.75V12.5C18.75 11.1212 17.6288 10 16.25 10C14.8712 10 13.75 11.1212 13.75 12.5V15Z" fill="white"/>
<path d="M16.25 10C15.56 10 15 9.44 15 8.75V1.25C15 0.56 15.56 0 16.25 0C16.94 0 17.5 0.56 17.5 1.25V8.75C17.5 9.44 16.94 10 16.25 10Z" fill="white"/>
<path d="M38.75 12.5H28.75C25.9925 12.5 23.75 10.2575 23.75 7.5C23.75 4.7425 25.9925 2.5 28.75 2.5C28.9712 2.5 29.1912 2.515 29.41 2.545C30.2812 1.0025 31.9275 0 33.75 0C35.5725 0 37.2188 1.0025 38.09 2.545C38.3088 2.515 38.5288 2.5 38.75 2.5C41.5075 2.5 43.75 4.7425 43.75 7.5C43.75 10.2575 41.5075 12.5 38.75 12.5ZM28.75 5C27.3712 5 26.25 6.12125 26.25 7.5C26.25 8.87875 27.3712 10 28.75 10H38.75C40.1288 10 41.25 8.87875 41.25 7.5C41.25 5.81 39.4788 4.515 37.8213 5.185C37.49 5.3175 37.1175 5.3025 36.7975 5.14375C36.4775 4.985 36.2413 4.69625 36.1488 4.35125C35.8538 3.26125 34.8675 2.5 33.75 2.5C32.6325 2.5 31.6462 3.26125 31.3512 4.35125C31.2575 4.69625 31.0212 4.98375 30.7025 5.14375C30.3837 5.30375 30.0112 5.3175 29.6787 5.185C29.3737 5.0625 29.0613 5 28.75 5Z" fill="white"/>
<path d="M12.5 33.75C11.81 33.75 11.25 33.19 11.25 32.5V30C11.25 29.31 11.81 28.75 12.5 28.75C13.19 28.75 13.75 29.31 13.75 30V32.5C13.75 33.19 13.19 33.75 12.5 33.75Z" fill="white"/>
<path d="M20 33.75C19.31 33.75 18.75 33.19 18.75 32.5V30C18.75 29.31 19.31 28.75 20 28.75C20.69 28.75 21.25 29.31 21.25 30V32.5C21.25 33.19 20.69 33.75 20 33.75Z" fill="white"/>
<path d="M16.25 38.75C15.56 38.75 15 38.19 15 37.5V35C15 34.31 15.56 33.75 16.25 33.75C16.94 33.75 17.5 34.31 17.5 35V37.5C17.5 38.19 16.94 38.75 16.25 38.75Z" fill="white"/>
<path d="M12.5 43.75C11.81 43.75 11.25 43.19 11.25 42.5V40C11.25 39.31 11.81 38.75 12.5 38.75C13.19 38.75 13.75 39.31 13.75 40V42.5C13.75 43.19 13.19 43.75 12.5 43.75Z" fill="white"/>
<path d="M20 43.75C19.31 43.75 18.75 43.19 18.75 42.5V40C18.75 39.31 19.31 38.75 20 38.75C20.69 38.75 21.25 39.31 21.25 40V42.5C21.25 43.19 20.69 43.75 20 43.75Z" fill="white"/>
<path d="M16.25 48.75C15.56 48.75 15 48.19 15 47.5V45C15 44.31 15.56 43.75 16.25 43.75C16.94 43.75 17.5 44.31 17.5 45V47.5C17.5 48.19 16.94 48.75 16.25 48.75Z" fill="white"/>
<path d="M12.5 53.75C11.81 53.75 11.25 53.19 11.25 52.5V50C11.25 49.31 11.81 48.75 12.5 48.75C13.19 48.75 13.75 49.31 13.75 50V52.5C13.75 53.19 13.19 53.75 12.5 53.75Z" fill="white"/>
<path d="M20 53.75C19.31 53.75 18.75 53.19 18.75 52.5V50C18.75 49.31 19.31 48.75 20 48.75C20.69 48.75 21.25 49.31 21.25 50V52.5C21.25 53.19 20.69 53.75 20 53.75Z" fill="white"/>
<path d="M16.25 58.75C15.56 58.75 15 58.19 15 57.5V55C15 54.31 15.56 53.75 16.25 53.75C16.94 53.75 17.5 54.31 17.5 55V57.5C17.5 58.19 16.94 58.75 16.25 58.75Z" fill="white"/>
<path d="M12.5 63.75C11.81 63.75 11.25 63.19 11.25 62.5V60C11.25 59.31 11.81 58.75 12.5 58.75C13.19 58.75 13.75 59.31 13.75 60V62.5C13.75 63.19 13.19 63.75 12.5 63.75Z" fill="white"/>
<path d="M20 63.75C19.31 63.75 18.75 63.19 18.75 62.5V60C18.75 59.31 19.31 58.75 20 58.75C20.69 58.75 21.25 59.31 21.25 60V62.5C21.25 63.19 20.69 63.75 20 63.75Z" fill="white"/>
<path d="M16.25 68.75C15.56 68.75 15 68.19 15 67.5V65C15 64.31 15.56 63.75 16.25 63.75C16.94 63.75 17.5 64.31 17.5 65V67.5C17.5 68.19 16.94 68.75 16.25 68.75Z" fill="white"/>
<path d="M32.5 68.75H30C29.31 68.75 28.75 68.19 28.75 67.5C28.75 66.81 29.31 66.25 30 66.25H32.5C33.19 66.25 33.75 66.81 33.75 67.5C33.75 68.19 33.19 68.75 32.5 68.75Z" fill="white"/>
<path d="M40 68.75H37.5C36.81 68.75 36.25 68.19 36.25 67.5C36.25 66.81 36.81 66.25 37.5 66.25H40C40.69 66.25 41.25 66.81 41.25 67.5C41.25 68.19 40.69 68.75 40 68.75Z" fill="white"/>
<path d="M50 70C49.31 70 48.75 69.44 48.75 68.75V26.25C48.75 25.56 49.31 25 50 25C50.69 25 51.25 25.56 51.25 26.25V68.75C51.25 69.44 50.69 70 50 70Z" fill="white"/>
<path d="M50 22.5C49.31 22.5 48.75 21.94 48.75 21.25V18.75C48.75 18.06 49.31 17.5 50 17.5C50.69 17.5 51.25 18.06 51.25 18.75V21.25C51.25 21.94 50.69 22.5 50 22.5Z" fill="white"/>
<path d="M55 62.5C54.31 62.5 53.75 61.94 53.75 61.25V18.75C53.75 18.06 54.31 17.5 55 17.5C55.69 17.5 56.25 18.06 56.25 18.75V61.25C56.25 61.94 55.69 62.5 55 62.5Z" fill="white"/>
<path d="M55 70C54.31 70 53.75 69.44 53.75 68.75V66.25C53.75 65.56 54.31 65 55 65C55.69 65 56.25 65.56 56.25 66.25V68.75C56.25 69.44 55.69 70 55 70Z" fill="white"/>
<path d="M40 57.5C39.31 57.5 38.75 56.94 38.75 56.25V37.5C38.75 36.81 39.31 36.25 40 36.25C40.69 36.25 41.25 36.81 41.25 37.5V56.25C41.25 56.94 40.69 57.5 40 57.5Z" fill="white"/>
<path d="M35 62.5H25C24.31 62.5 23.75 61.94 23.75 61.25V41.25C23.75 40.56 24.31 40 25 40H35C35.69 40 36.25 40.56 36.25 41.25V61.25C36.25 61.94 35.69 62.5 35 62.5ZM26.25 60H33.75V42.5H26.25V60Z" fill="white"/>
<path d="M30 56.25C29.31 56.25 28.75 55.69 28.75 55V47.5C28.75 46.81 29.31 46.25 30 46.25C30.69 46.25 31.25 46.81 31.25 47.5V55C31.25 55.69 30.69 56.25 30 56.25Z" fill="white"/>
</svg>
