<svg xmlns="http://www.w3.org/2000/svg" version="1.1" viewBox="-5.0 -10.0 110.0 135.0">
 <path d="m30.02 25.691h0.46094v4.1211c0 0.28125 0.21875 0.5 0.5 0.5h5.3398c0.28125 0 0.5-0.21875 0.5-0.5v-4.1211h0.46094c0.28125 0 0.5-0.21875 0.5-0.5v-1.5586c0-0.28125-0.21875-0.5-0.5-0.5h-7.2617c-0.28125 0-0.5 0.21875-0.5 0.5v1.5586c0 0.26953 0.23047 0.5 0.5 0.5zm5.8008 3.6172h-4.3398v-3.6211h4.3398zm-5.3008-5.1797h6.2617v0.55859h-0.44922-0.011719-0.011718-5.3203-0.011719-0.011718-0.46094l0.007813-0.55859z" fill="white"/>
 <path d="m40.922 25.691h0.46094v4.1211c0 0.28125 0.21875 0.5 0.5 0.5h5.3398c0.28125 0 0.5-0.21875 0.5-0.5v-4.1211h0.46094c0.28125 0 0.5-0.21875 0.5-0.5v-1.5586c0-0.28125-0.21875-0.5-0.5-0.5h-7.2617c-0.28125 0-0.5 0.21875-0.5 0.5v1.5586c0 0.26953 0.22656 0.5 0.5 0.5zm5.7969 3.6172h-4.3398v-3.6211h4.3398zm-5.2969-5.1797h6.2617v0.55859h-0.44922-0.011719-0.011718-5.3203-0.011719-0.011718-0.46094l0.003906-0.55859z" fill="white"/>
 <path d="m51.82 25.691h0.46094v4.1211c0 0.28125 0.21875 0.5 0.5 0.5h5.3398c0.28125 0 0.5-0.21875 0.5-0.5v-4.1211h0.46094c0.28125 0 0.5-0.21875 0.5-0.5v-1.5586c0-0.28125-0.21875-0.5-0.5-0.5h-7.2617c-0.28125 0-0.5 0.21875-0.5 0.5v1.5586c0 0.26953 0.21875 0.5 0.5 0.5zm5.8008 3.6172h-4.3398v-3.6211h4.3398zm-5.3008-5.1797h6.2617v0.55859h-0.44922-0.011718-0.011719-5.3203-0.011718-0.011719-0.46094l0.003906-0.55859z" fill="white"/>
 <path d="m62.719 25.691h0.46094v4.1211c0 0.28125 0.21875 0.5 0.5 0.5h5.3398c0.28125 0 0.5-0.21875 0.5-0.5v-4.1211h0.46094c0.28125 0 0.5-0.21875 0.5-0.5v-1.5586c0-0.28125-0.21875-0.5-0.5-0.5h-7.2617c-0.28125 0-0.5 0.21875-0.5 0.5v1.5586c0 0.26953 0.22266 0.5 0.5 0.5zm5.8008 3.6172h-4.3398v-3.6211h4.3398zm-5.3008-5.1797h6.2617v0.55859h-0.44922-0.011719-0.011719-5.3203-0.011719-0.011719-0.46094l0.007813-0.55859z" fill="white"/>
 <path d="m30.02 35.969h0.46094v4.1211c0 0.28125 0.21875 0.5 0.5 0.5h5.3398c0.28125 0 0.5-0.21875 0.5-0.5v-4.1211h0.46094c0.28125 0 0.5-0.21875 0.5-0.5v-1.5586c0-0.28125-0.21875-0.5-0.5-0.5h-7.2617c-0.28125 0-0.5 0.21875-0.5 0.5v1.5586c0 0.28125 0.23047 0.5 0.5 0.5zm5.8008 3.6211h-4.3398v-3.6211h4.3398zm-5.3008-5.1797h6.2617v0.55859h-0.44922-0.011719-0.011718-5.3203-0.011719-0.011718-0.46094l0.007813-0.55859z" fill="white"/>
 <path d="m40.922 35.969h0.46094v4.1211c0 0.28125 0.21875 0.5 0.5 0.5h5.3398c0.28125 0 0.5-0.21875 0.5-0.5v-4.1211h0.46094c0.28125 0 0.5-0.21875 0.5-0.5v-1.5586c0-0.28125-0.21875-0.5-0.5-0.5h-7.2617c-0.28125 0-0.5 0.21875-0.5 0.5v1.5586c0 0.28125 0.22656 0.5 0.5 0.5zm5.7969 3.6211h-4.3398v-3.6211h4.3398zm-5.2969-5.1797h6.2617v0.55859h-0.44922-0.011719-0.011718-5.3203-0.011719-0.011718-0.46094l0.003906-0.55859z" fill="white"/>
 <path d="m51.82 35.969h0.46094v4.1211c0 0.28125 0.21875 0.5 0.5 0.5h5.3398c0.28125 0 0.5-0.21875 0.5-0.5v-4.1211h0.46094c0.28125 0 0.5-0.21875 0.5-0.5v-1.5586c0-0.28125-0.21875-0.5-0.5-0.5h-7.2617c-0.28125 0-0.5 0.21875-0.5 0.5v1.5586c0 0.28125 0.21875 0.5 0.5 0.5zm5.8008 3.6211h-4.3398v-3.6211h4.3398zm-5.3008-5.1797h6.2617v0.55859h-0.44922-0.011718-0.011719-5.3203-0.011718-0.011719-0.46094l0.003906-0.55859z" fill="white"/>
 <path d="m62.719 35.969h0.46094v4.1211c0 0.28125 0.21875 0.5 0.5 0.5h5.3398c0.28125 0 0.5-0.21875 0.5-0.5v-4.1211h0.46094c0.28125 0 0.5-0.21875 0.5-0.5v-1.5586c0-0.28125-0.21875-0.5-0.5-0.5h-7.2617c-0.28125 0-0.5 0.21875-0.5 0.5v1.5586c0 0.28125 0.22266 0.5 0.5 0.5zm5.8008 3.6211h-4.3398v-3.6211h4.3398zm-5.3008-5.1797h6.2617v0.55859h-0.44922-0.011719-0.011719-5.3203-0.011719-0.011719-0.46094l0.007813-0.55859z" fill="white"/>
 <path d="m85.25 28.789h-7.2617c-0.28125 0-0.5 0.21875-0.5 0.5v1.5586c0 0.28125 0.21875 0.5 0.5 0.5h0.46094v4.1211c0 0.28125 0.21875 0.5 0.5 0.5h5.3398c0.28125 0 0.5-0.21875 0.5-0.5v-4.1211h0.46094c0.28125 0 0.5-0.21875 0.5-0.5v-1.5586c0-0.27734-0.21875-0.5-0.5-0.5zm-1.4609 6.1797h-4.3398v-3.6211h4.3398zm0.96094-4.6172h-0.44922-0.011719-0.011718-5.3203-0.011719-0.011718-0.44922v-0.55859h6.2617z" fill="white"/>
 <path d="m85.25 39.59h-7.2617c-0.28125 0-0.5 0.21875-0.5 0.5v1.5586c0 0.28125 0.21875 0.5 0.5 0.5h0.46094v4.1211c0 0.28125 0.21875 0.5 0.5 0.5h5.3398c0.28125 0 0.5-0.21875 0.5-0.5v-4.1211h0.46094c0.28125 0 0.5-0.21875 0.5-0.5v-1.5586c0-0.26953-0.21875-0.5-0.5-0.5zm-1.4609 6.1797h-4.3398v-3.6211h4.3398zm0.96094-4.6211h-0.44922-0.011719-0.011718-5.3203-0.011719-0.011718-0.44922v-0.55859h6.2617z" fill="white"/>
 <path d="m85.25 50.398h-7.2617c-0.28125 0-0.5 0.21875-0.5 0.5v1.5586c0 0.28125 0.21875 0.5 0.5 0.5h0.46094v4.1211c0 0.28125 0.21875 0.5 0.5 0.5h5.3398c0.28125 0 0.5-0.21875 0.5-0.5v-4.1211h0.46094c0.28125 0 0.5-0.21875 0.5-0.5v-1.5586c0-0.27734-0.21875-0.5-0.5-0.5zm-1.4609 6.1797h-4.3398v-3.6211h4.3398zm0.96094-4.6289h-0.44922-0.011719-0.011718-5.3203-0.011719-0.011718-0.44922l0.003906-0.55078h6.2617z" fill="white"/>
 <path d="m85.25 61.199h-7.2617c-0.28125 0-0.5 0.21875-0.5 0.5v1.5586c0 0.28125 0.21875 0.5 0.5 0.5h0.46094v4.1211c0 0.28125 0.21875 0.5 0.5 0.5h5.3398c0.28125 0 0.5-0.21875 0.5-0.5v-4.1211h0.46094c0.28125 0 0.5-0.21875 0.5-0.5v-1.5586c0-0.27734-0.21875-0.5-0.5-0.5zm-1.4609 6.1797h-4.3398v-3.6211h4.3398zm0.96094-4.6172h-0.44922-0.011719-0.011718-5.3203-0.011719-0.011718-0.44922l0.003906-0.5625h6.2617z" fill="white"/>
 <path d="m85.25 72h-7.2617c-0.28125 0-0.5 0.21875-0.5 0.5v1.5586c0 0.28125 0.21875 0.5 0.5 0.5h0.46094v4.1211c0 0.28125 0.21875 0.5 0.5 0.5h5.3398c0.28125 0 0.5-0.21875 0.5-0.5v-4.1211h0.46094c0.28125 0 0.5-0.21875 0.5-0.5v-1.5586c0-0.26953-0.21875-0.5-0.5-0.5zm-1.4609 6.1797h-4.3398v-3.6211h4.3398zm0.96094-4.6211h-0.44922-0.011719-0.011718-5.3203-0.011719-0.011718-0.44922l0.003906-0.55859h6.2617z" fill="white"/>
 <path d="m85.25 82.801h-7.2617c-0.28125 0-0.5 0.21875-0.5 0.5v1.5586c0 0.28125 0.21875 0.5 0.5 0.5h0.46094v4.1211c0 0.28125 0.21875 0.5 0.5 0.5h5.3398c0.28125 0 0.5-0.21875 0.5-0.5v-4.1211h0.46094c0.28125 0 0.5-0.21875 0.5-0.5v-1.5586c0-0.26953-0.21875-0.5-0.5-0.5zm-1.4609 6.1797h-4.3398v-3.6211h4.3398zm0.96094-4.6211h-0.44922-0.011719-0.011718-5.3203-0.011719-0.011718-0.44922l0.003906-0.55859h6.2617z" fill="white"/>
 <path d="m30.02 46.262h0.46094v4.1211c0 0.28125 0.21875 0.5 0.5 0.5h5.3398c0.28125 0 0.5-0.21875 0.5-0.5v-4.1211h0.46094c0.28125 0 0.5-0.21875 0.5-0.5v-1.5625c0-0.28125-0.21875-0.5-0.5-0.5h-7.2617c-0.28125 0-0.5 0.21875-0.5 0.5v1.5586c0 0.27344 0.23047 0.50391 0.5 0.50391zm5.8008 3.6172h-4.3398v-3.6211h4.3398zm-5.3008-5.1797h6.2617v0.55859h-0.44922-0.011719-0.011718-5.3203-0.011719-0.011718-0.46094l0.007813-0.55859z" fill="white"/>
 <path d="m40.922 46.262h0.46094v4.1211c0 0.28125 0.21875 0.5 0.5 0.5h5.3398c0.28125 0 0.5-0.21875 0.5-0.5v-4.1211h0.46094c0.28125 0 0.5-0.21875 0.5-0.5l-0.003906-1.5625c0-0.28125-0.21875-0.5-0.5-0.5h-7.2617c-0.28125 0-0.5 0.21875-0.5 0.5v1.5586c0.003906 0.27344 0.23047 0.50391 0.50391 0.50391zm5.7969 3.6172h-4.3398v-3.6211h4.3398zm-5.2969-5.1797h6.2617v0.55859h-0.44922-0.011719-0.011718-5.3203-0.011719-0.011718-0.46094l0.003906-0.55859z" fill="white"/>
 <path d="m51.82 46.262h0.46094v4.1211c0 0.28125 0.21875 0.5 0.5 0.5h5.3398c0.28125 0 0.5-0.21875 0.5-0.5v-4.1211h0.46094c0.28125 0 0.5-0.21875 0.5-0.5l-0.003906-1.5625c0-0.28125-0.21875-0.5-0.5-0.5h-7.2617c-0.28125 0-0.5 0.21875-0.5 0.5v1.5586c0.003906 0.27344 0.22266 0.50391 0.50391 0.50391zm5.8008 3.6172h-4.3398v-3.6211h4.3398zm-5.3008-5.1797h6.2617v0.55859h-0.44922-0.011718-0.011719-5.3203-0.011718-0.011719-0.46094l0.003906-0.55859z" fill="white"/>
 <path d="m62.719 46.262h0.46094v4.1211c0 0.28125 0.21875 0.5 0.5 0.5h5.3398c0.28125 0 0.5-0.21875 0.5-0.5v-4.1211h0.46094c0.28125 0 0.5-0.21875 0.5-0.5v-1.5625c0-0.28125-0.21875-0.5-0.5-0.5h-7.2617c-0.28125 0-0.5 0.21875-0.5 0.5v1.5586c0 0.27344 0.22266 0.50391 0.5 0.50391zm5.8008 3.6172h-4.3398v-3.6211h4.3398zm-5.3008-5.1797h6.2617v0.55859h-0.44922-0.011719-0.011719-5.3203-0.011719-0.011719-0.46094l0.007813-0.55859z" fill="white"/>
 <path d="m30.02 56.539h0.46094v4.1211c0 0.28125 0.21875 0.5 0.5 0.5h5.3398c0.28125 0 0.5-0.21875 0.5-0.5v-4.1211h0.46094c0.28125 0 0.5-0.21875 0.5-0.5v-1.5586c0-0.28125-0.21875-0.5-0.5-0.5h-7.2617c-0.28125 0-0.5 0.21875-0.5 0.5v1.5586c0 0.28125 0.23047 0.5 0.5 0.5zm5.8008 3.6211h-4.3398v-3.6211h4.3398zm-5.3008-5.1797h6.2617v0.55859h-0.44922-0.011719-0.011718-5.3203-0.011719-0.011718-0.46094l0.007813-0.55859z" fill="white"/>
 <path d="m40.922 56.539h0.46094v4.1211c0 0.28125 0.21875 0.5 0.5 0.5h5.3398c0.28125 0 0.5-0.21875 0.5-0.5v-4.1211h0.46094c0.28125 0 0.5-0.21875 0.5-0.5v-1.5586c0-0.28125-0.21875-0.5-0.5-0.5h-7.2617c-0.28125 0-0.5 0.21875-0.5 0.5v1.5586c0 0.28125 0.22656 0.5 0.5 0.5zm5.7969 3.6211h-4.3398v-3.6211h4.3398zm-5.2969-5.1797h6.2617v0.55859h-0.44922-0.011719-0.011718-5.3203-0.011719-0.011718-0.46094l0.003906-0.55859z" fill="white"/>
 <path d="m51.82 56.539h0.46094v4.1211c0 0.28125 0.21875 0.5 0.5 0.5h5.3398c0.28125 0 0.5-0.21875 0.5-0.5v-4.1211h0.46094c0.28125 0 0.5-0.21875 0.5-0.5v-1.5586c0-0.28125-0.21875-0.5-0.5-0.5h-7.2617c-0.28125 0-0.5 0.21875-0.5 0.5v1.5586c0 0.28125 0.21875 0.5 0.5 0.5zm5.8008 3.6211h-4.3398v-3.6211h4.3398zm-5.3008-5.1797h6.2617v0.55859h-0.44922-0.011718-0.011719-5.3203-0.011718-0.011719-0.46094l0.003906-0.55859z" fill="white"/>
 <path d="m62.719 56.539h0.46094v4.1211c0 0.28125 0.21875 0.5 0.5 0.5h5.3398c0.28125 0 0.5-0.21875 0.5-0.5v-4.1211h0.46094c0.28125 0 0.5-0.21875 0.5-0.5v-1.5586c0-0.28125-0.21875-0.5-0.5-0.5h-7.2617c-0.28125 0-0.5 0.21875-0.5 0.5v1.5586c0 0.28125 0.22266 0.5 0.5 0.5zm5.8008 3.6211h-4.3398v-3.6211h4.3398zm-5.3008-5.1797h6.2617v0.55859h-0.44922-0.011719-0.011719-5.3203-0.011719-0.011719-0.46094l0.007813-0.55859z" fill="white"/>
 <path d="m30.02 66.82h0.46094v4.1211c0 0.28125 0.21875 0.5 0.5 0.5h5.3398c0.28125 0 0.5-0.21875 0.5-0.5v-4.1211h0.46094c0.28125 0 0.5-0.21875 0.5-0.5v-1.5586c0-0.28125-0.21875-0.5-0.5-0.5h-7.2617c-0.28125 0-0.5 0.21875-0.5 0.5v1.5586c0 0.28125 0.23047 0.5 0.5 0.5zm5.8008 3.6289h-4.3398v-3.6211h4.3398zm-5.3008-5.1797h6.2617v0.55859h-0.44922-0.011719-0.011718-5.3203-0.011719-0.011718-0.46094l0.007813-0.55859z" fill="white"/>
 <path d="m40.922 66.82h0.46094v4.1211c0 0.28125 0.21875 0.5 0.5 0.5h5.3398c0.28125 0 0.5-0.21875 0.5-0.5v-4.1211h0.46094c0.28125 0 0.5-0.21875 0.5-0.5v-1.5586c0-0.28125-0.21875-0.5-0.5-0.5h-7.2617c-0.28125 0-0.5 0.21875-0.5 0.5v1.5586c0 0.28125 0.22656 0.5 0.5 0.5zm5.7969 3.6289h-4.3398v-3.6211h4.3398zm-5.2969-5.1797h6.2617v0.55859h-0.44922-0.011719-0.011718-5.3203-0.011719-0.011718-0.46094l0.003906-0.55859z" fill="white"/>
 <path d="m51.82 66.82h0.46094v4.1211c0 0.28125 0.21875 0.5 0.5 0.5h5.3398c0.28125 0 0.5-0.21875 0.5-0.5v-4.1211h0.46094c0.28125 0 0.5-0.21875 0.5-0.5v-1.5586c0-0.28125-0.21875-0.5-0.5-0.5h-7.2617c-0.28125 0-0.5 0.21875-0.5 0.5v1.5586c0 0.28125 0.21875 0.5 0.5 0.5zm5.8008 3.6289h-4.3398v-3.6211h4.3398zm-5.3008-5.1797h6.2617v0.55859h-0.44922-0.011718-0.011719-5.3203-0.011718-0.011719-0.46094l0.003906-0.55859z" fill="white"/>
 <path d="m62.719 66.82h0.46094v4.1211c0 0.28125 0.21875 0.5 0.5 0.5h5.3398c0.28125 0 0.5-0.21875 0.5-0.5v-4.1211h0.46094c0.28125 0 0.5-0.21875 0.5-0.5v-1.5586c0-0.28125-0.21875-0.5-0.5-0.5h-7.2617c-0.28125 0-0.5 0.21875-0.5 0.5v1.5586c0 0.28125 0.22266 0.5 0.5 0.5zm5.8008 3.6289h-4.3398v-3.6211h4.3398zm-5.3008-5.1797h6.2617v0.55859h-0.44922-0.011719-0.011719-5.3203-0.011719-0.011719-0.46094l0.007813-0.55859z" fill="white"/>
 <path d="m14.75 31.352h0.46094v4.1211c0 0.28125 0.21875 0.5 0.5 0.5h5.3398c0.28125 0 0.5-0.21875 0.5-0.5v-4.1211h0.46094c0.28125 0 0.5-0.21875 0.5-0.5v-1.5586c0-0.28125-0.21875-0.5-0.5-0.5h-7.2617c-0.28125 0-0.5 0.21875-0.5 0.5v1.5586c0 0.26953 0.21875 0.5 0.5 0.5zm5.8008 3.6172h-4.3398v-3.6211h4.3398zm-5.3008-5.1797h6.2617v0.55859h-0.46094-0.011719-0.011718-5.3203-0.011719-0.011718-0.44922l0.003906-0.55859z" fill="white"/>
 <path d="m14.75 42.148h0.46094v4.1211c0 0.28125 0.21875 0.5 0.5 0.5h5.3398c0.28125 0 0.5-0.21875 0.5-0.5v-4.1211h0.46094c0.28125 0 0.5-0.21875 0.5-0.5v-1.5586c0-0.28125-0.21875-0.5-0.5-0.5h-7.2617c-0.28125 0-0.5 0.21875-0.5 0.5v1.5586c0 0.28125 0.21875 0.5 0.5 0.5zm5.8008 3.6211h-4.3398v-3.6211h4.3398zm-5.3008-5.1797h6.2617v0.55859h-0.46094-0.011719-0.011718-5.3203-0.011719-0.011718-0.44922l0.003906-0.55859z" fill="white"/>
 <path d="m14.75 52.949h0.46094v4.1211c0 0.28125 0.21875 0.5 0.5 0.5h5.3398c0.28125 0 0.5-0.21875 0.5-0.5v-4.1211h0.46094c0.28125 0 0.5-0.21875 0.5-0.5v-1.5508c0-0.28125-0.21875-0.5-0.5-0.5h-7.2617c-0.28125 0-0.5 0.21875-0.5 0.5v1.5586c0 0.27344 0.21875 0.49219 0.5 0.49219zm5.8008 3.6289h-4.3398v-3.6211h4.3398zm-5.3008-5.1797h6.2617v0.55859h-0.46094-0.011719-0.011718-5.3203-0.011719-0.011718-0.44922l0.003906-0.55859z" fill="white"/>
 <path d="m14.75 63.762h0.46094v4.1211c0 0.28125 0.21875 0.5 0.5 0.5h5.3398c0.28125 0 0.5-0.21875 0.5-0.5v-4.1211h0.46094c0.28125 0 0.5-0.21875 0.5-0.5v-1.5625c0-0.28125-0.21875-0.5-0.5-0.5h-7.2617c-0.28125 0-0.5 0.21875-0.5 0.5v1.5586c0 0.27344 0.21875 0.50391 0.5 0.50391zm5.8008 3.6172h-4.3398v-3.6211h4.3398zm-5.3008-5.1797h6.2617v0.55859h-0.46094-0.011719-0.011718-5.3203-0.011719-0.011718-0.44922l0.003906-0.55859z" fill="white"/>
 <path d="m14.75 74.559h0.46094v4.1211c0 0.28125 0.21875 0.5 0.5 0.5h5.3398c0.28125 0 0.5-0.21875 0.5-0.5v-4.1211h0.46094c0.28125 0 0.5-0.21875 0.5-0.5v-1.5586c0-0.28125-0.21875-0.5-0.5-0.5h-7.2617c-0.28125 0-0.5 0.21875-0.5 0.5v1.5586c0 0.28125 0.21875 0.5 0.5 0.5zm5.8008 3.6211h-4.3398v-3.6211h4.3398zm-5.3008-5.1797h6.2617v0.55859h-0.46094-0.011719-0.011718-5.3203-0.011719-0.011718-0.44922l0.003906-0.55859z" fill="white"/>
 <path d="m14.75 85.359h0.46094v4.1211c0 0.28125 0.21875 0.5 0.5 0.5h5.3398c0.28125 0 0.5-0.21875 0.5-0.5v-4.1211h0.46094c0.28125 0 0.5-0.21875 0.5-0.5v-1.5586c0-0.28125-0.21875-0.5-0.5-0.5h-7.2617c-0.28125 0-0.5 0.21875-0.5 0.5v1.5586c0 0.28125 0.21875 0.5 0.5 0.5zm5.8008 3.6211h-4.3398v-3.6211h4.3398zm-5.3008-5.1797h6.2617v0.55859h-0.46094-0.011719-0.011718-5.3203-0.011719-0.011718-0.44922l0.003906-0.55859z" fill="white"/>
 <path d="m9.1094 25.441h1.1016v69.711c0 0.28125 0.21875 0.5 0.5 0.5h15.32l15.07-0.003906h0.019532 17.758 0.019532 30.379c0.28125 0 0.5-0.21875 0.5-0.5l0.003906-69.707h1.1016c0.28125 0 0.5-0.21875 0.5-0.5v-2.7109c0-0.28125-0.21875-0.5-0.5-0.5h-16.422v-13.68h1.4219c0.28125 0 0.5-0.21875 0.5-0.5v-2.6992c0-0.28125-0.21875-0.5-0.5-0.5h-3.8594-0.011719-44.023-0.011719-3.8594c-0.28125 0-0.5 0.21875-0.5 0.5v2.6992c0 0.28125 0.21875 0.5 0.5 0.5h1.4219v13.684l-16.43-0.003906c-0.28125 0-0.5 0.21875-0.5 0.5v2.7109c0 0.26953 0.23047 0.5 0.5 0.5zm65.352-2.7109h15.93v1.7109h-15.93zm0 2.7109h14.32v69.211l-14.32-0.003906zm-16.082 69.207h-3.2891-0.019532-10.141-0.019532-3.2891v-17.117h16.762zm0.5-18.117h-22.738c0.23828-1.2695 1.3594-2.2383 2.7109-2.2383h22.301c1.3516 0 2.4688 0.96875 2.7109 2.2383zm14.582-54.301v72.422l-14.082-0.003906v-17.117h5.0195c0.28125 0 0.5-0.21875 0.5-0.5 0-2.0586-1.6797-3.7383-3.75-3.7383h-22.301c-2.0703 0-3.75 1.6797-3.75 3.7383 0 0.28125 0.21875 0.5 0.5 0.5h5.0195v17.121l-14.078-0.003906v-73.699h46.922zm0-2.2812h-46.922v-1.9219h46.922zm0-2.918h-46.922v-8.9805h46.922zm-48.84-9.9805v-1.6992h50.75v1.6992zm0.91797 87.598h-14.32v-69.207h14.32zm-15.93-71.918h15.93v1.7109h-15.922l0.003906-1.7109z" fill="white"/>
 <path d="m32.859 13.289-0.30078 1.7617c-0.03125 0.19141 0.039062 0.37891 0.19922 0.48828 0.14844 0.10938 0.35938 0.12891 0.53125 0.039063l1.5781-0.82812 1.5781 0.82812c0.070313 0.039063 0.14844 0.058594 0.23047 0.058594 0.10156 0 0.21094-0.03125 0.28906-0.10156 0.14844-0.10938 0.23047-0.30078 0.19922-0.48828l-0.30078-1.7617 1.2812-1.25c0.14062-0.12891 0.19141-0.32812 0.12891-0.51172-0.058594-0.17969-0.21875-0.30859-0.39844-0.33984l-1.7617-0.26172-0.78906-1.6016c-0.17188-0.33984-0.73047-0.33984-0.89844 0l-0.78906 1.6016-1.7617 0.26172c-0.19141 0.03125-0.33984 0.16016-0.39844 0.33984-0.058593 0.17969-0.011718 0.37891 0.12891 0.51172zm1.1719-1.3984c0.16016-0.019531 0.30078-0.12891 0.37891-0.26953l0.46094-0.92969 0.46094 0.92969c0.070313 0.14844 0.21094 0.25 0.37891 0.26953l1.0195 0.14844-0.73828 0.71875c-0.12109 0.10938-0.17188 0.28125-0.14063 0.44141l0.17188 1.0195-0.91016-0.48047c-0.070312-0.039062-0.14844-0.058593-0.23047-0.058593-0.078124 0-0.16016 0.019531-0.23047 0.058593l-0.91016 0.48047 0.17187-1.0195c0.03125-0.16016-0.03125-0.32812-0.14062-0.44141l-0.73828-0.71875z" fill="white"/>
 <path d="m40.43 13.289-0.30078 1.7617c-0.03125 0.19141 0.039063 0.37891 0.19922 0.48828 0.089844 0.058594 0.19141 0.10156 0.28906 0.10156 0.078124 0 0.16016-0.019531 0.23047-0.058594l1.5781-0.82812 1.5781 0.82812c0.17188 0.089844 0.37109 0.070313 0.53125-0.039062 0.14844-0.10938 0.23047-0.30078 0.19922-0.48828l-0.30078-1.7617 1.2812-1.2383c0.14062-0.12891 0.19141-0.32813 0.12891-0.51172-0.058594-0.17969-0.21875-0.30859-0.39844-0.33984l-1.7617-0.26172-0.78906-1.6016c-0.078125-0.17188-0.26172-0.28125-0.44922-0.28125-0.19141 0-0.35937 0.10938-0.44922 0.28125l-0.78906 1.6016-1.7617 0.26172c-0.19141 0.03125-0.33984 0.16016-0.39844 0.33984-0.058594 0.17969-0.011719 0.37891 0.12891 0.51172zm1.1719-1.3984c0.16016-0.019531 0.30078-0.12891 0.37891-0.26953l0.46094-0.92969 0.46094 0.92969c0.070312 0.14844 0.21094 0.25 0.37891 0.26953l1.0195 0.14844-0.73828 0.71875c-0.12109 0.10938-0.17188 0.28125-0.14062 0.44141l0.17188 1.0195-0.91016-0.48047c-0.14844-0.078125-0.32031-0.078125-0.46875 0l-0.91016 0.48047 0.17187-1.0195c0.03125-0.16016-0.03125-0.32812-0.14062-0.44141l-0.73828-0.71875z" fill="white"/>
 <path d="m48 13.289-0.30078 1.7617c-0.03125 0.19141 0.039062 0.37891 0.19922 0.48828 0.16016 0.10938 0.35937 0.12891 0.53125 0.039063l1.5703-0.82812 1.5781 0.82812c0.070313 0.039063 0.14844 0.058594 0.23047 0.058594 0.10156 0 0.21094-0.03125 0.28906-0.10156 0.14844-0.10938 0.23047-0.30078 0.19922-0.48828l-0.29688-1.7578 1.2812-1.2383c0.14062-0.12891 0.19141-0.32812 0.12891-0.51172-0.058594-0.17969-0.21875-0.30859-0.39844-0.33984l-1.7617-0.26172-0.78906-1.6016c-0.17188-0.33984-0.73047-0.33984-0.89844 0l-0.78906 1.6016-1.7734 0.25391c-0.19141 0.03125-0.33984 0.16016-0.39844 0.33984-0.058593 0.17969-0.011718 0.37891 0.12891 0.51172zm1.1719-1.3984c0.16016-0.019531 0.30078-0.12891 0.37891-0.26953l0.44922-0.92969 0.46094 0.92969c0.070312 0.14844 0.21094 0.25 0.37891 0.26953l1.0195 0.14844-0.73828 0.71875c-0.12109 0.10938-0.17188 0.28125-0.14062 0.44141l0.17188 1.0195-0.91016-0.48047c-0.070313-0.039062-0.14844-0.058593-0.23047-0.058593-0.078125 0-0.16016 0.019531-0.23047 0.058593l-0.91016 0.48047 0.17188-1.0195c0.03125-0.16016-0.03125-0.32812-0.14062-0.44141l-0.73828-0.71875z" fill="white"/>
 <path d="m55.57 13.289-0.30078 1.7617c-0.03125 0.19141 0.039063 0.37891 0.19922 0.48828 0.14844 0.10938 0.35938 0.12891 0.53125 0.039063l1.5781-0.82812 1.5781 0.82812c0.070312 0.039063 0.14844 0.058594 0.23047 0.058594 0.10156 0 0.21094-0.03125 0.28906-0.10156 0.14844-0.10938 0.23047-0.30078 0.19922-0.48828l-0.30078-1.7617 1.2812-1.25c0.14062-0.12891 0.19141-0.32812 0.12891-0.51172-0.058594-0.17969-0.21875-0.30859-0.39844-0.33984l-1.7617-0.26172-0.78906-1.6016c-0.17188-0.33984-0.73047-0.33984-0.89844 0l-0.78906 1.6016-1.7617 0.26172c-0.19141 0.03125-0.33984 0.16016-0.39844 0.33984-0.058594 0.17969-0.011719 0.37891 0.12891 0.51172zm1.1602-1.3984c0.16016-0.019531 0.30078-0.12891 0.37891-0.26953l0.46094-0.92969 0.46094 0.92969c0.070312 0.14844 0.21094 0.25 0.37891 0.26953l1.0195 0.14844-0.73828 0.71875c-0.12109 0.10938-0.17188 0.28125-0.14062 0.44141l0.17188 1.0195-0.91016-0.48047c-0.070312-0.039062-0.14844-0.058593-0.23047-0.058593-0.078125 0-0.16016 0.019531-0.23047 0.058593l-0.91016 0.48047 0.17188-1.0195c0.03125-0.16016-0.03125-0.32812-0.14062-0.44141l-0.73828-0.71875z"  fill="white"/>
 <path d="m63.129 13.289-0.30078 1.7617c-0.03125 0.19141 0.039063 0.37891 0.19922 0.48828 0.089844 0.058594 0.19141 0.10156 0.28906 0.10156 0.078125 0 0.16016-0.019531 0.23047-0.058594l1.5781-0.82812 1.5781 0.82812c0.17188 0.089844 0.37109 0.070313 0.53125-0.039062 0.14844-0.10938 0.23047-0.30078 0.19922-0.48828l-0.30078-1.7617 1.2812-1.2383c0.14063-0.12891 0.19141-0.32813 0.12891-0.51172-0.058594-0.17969-0.21875-0.30859-0.39844-0.33984l-1.7617-0.26172-0.78906-1.6016c-0.078125-0.17188-0.26172-0.28125-0.44922-0.28125-0.19141 0-0.35938 0.10938-0.44922 0.28125l-0.78906 1.6016-1.7617 0.26172c-0.19141 0.03125-0.33984 0.16016-0.39844 0.33984-0.058594 0.17969-0.011719 0.37891 0.12891 0.51172zm1.1719-1.3984c0.16016-0.019531 0.30078-0.12891 0.37891-0.26953l0.46094-0.92969 0.46094 0.92969c0.070313 0.14844 0.21094 0.25 0.37891 0.26953l1.0195 0.14844-0.73828 0.71875c-0.12109 0.10938-0.17188 0.28125-0.14062 0.44141l0.17188 1.0195-0.91016-0.48047c-0.14844-0.078125-0.32031-0.078125-0.46875 0l-0.91016 0.48047 0.17188-1.0195c0.03125-0.16016-0.03125-0.32812-0.14062-0.44141l-0.73828-0.71875z"  fill="white"/>
</svg>