<svg xmlns="http://www.w3.org/2000/svg" xmlns:xlink="http://www.w3.org/1999/xlink" width="362" zoomAndPan="magnify" viewBox="0 0 271.5 76.499998" height="102" preserveAspectRatio="xMidYMid meet" version="1.0"><defs><g/><clipPath id="f1065b9906"><path d="M 29 12 L 55.773438 12 L 55.773438 39 L 29 39 Z M 29 12 " clip-rule="nonzero"/></clipPath><clipPath id="273db89a1b"><path d="M 17 4.792969 L 55.773438 4.792969 L 55.773438 69 L 17 69 Z M 17 4.792969 " clip-rule="nonzero"/></clipPath><clipPath id="268f85d677"><path d="M 24 64 L 52 64 L 52 75.582031 L 24 75.582031 Z M 24 64 " clip-rule="nonzero"/></clipPath></defs><g clip-path="url(#f1065b9906)"><path fill="#5ce1e6" d="M 51.980469 38.515625 C 52.523438 38.078125 52.90625 37.535156 53.136719 36.878906 C 53.363281 36.222656 53.402344 35.554688 53.25 34.878906 L 50.425781 22.253906 L 50.683594 22.078125 C 52.246094 21.023438 53.519531 19.589844 54.335938 17.964844 L 55.1875 16.273438 C 55.667969 15.316406 54.800781 14.238281 53.765625 14.507812 L 51.929688 14.984375 C 50.167969 15.4375 48.5 16.378906 47.136719 17.679688 L 46.910156 17.898438 L 35.171875 12.457031 C 34.542969 12.164062 33.882812 12.0625 33.191406 12.144531 C 32.503906 12.230469 31.890625 12.492188 31.347656 12.925781 L 42.835938 21.785156 L 36.382812 27.953125 L 31.269531 25.574219 C 30.976562 25.4375 30.667969 25.386719 30.347656 25.425781 C 30.027344 25.464844 29.738281 25.585938 29.488281 25.789062 L 34.5 29.820312 C 34.175781 30.222656 33.914062 30.660156 33.710938 31.136719 C 33.4375 31.785156 33.996094 32.472656 34.683594 32.34375 C 35.191406 32.25 35.675781 32.085938 36.140625 31.851562 L 39.015625 37.605469 C 39.265625 37.402344 39.445312 37.148438 39.550781 36.84375 C 39.65625 36.539062 39.675781 36.226562 39.601562 35.914062 L 38.363281 30.410156 L 45.757812 25.410156 Z M 51.980469 38.515625 " fill-opacity="1" fill-rule="nonzero"/></g><g clip-path="url(#273db89a1b)"><path fill="#ffa41b" d="M 39.867188 58.894531 C 32.078125 52.992188 23.382812 39.0625 23.382812 23.566406 C 23.382812 14.246094 31.707031 6.695312 41.972656 6.695312 C 44.046875 6.691406 46.070312 6.996094 48.046875 7.613281 C 44.894531 5.742188 41.484375 4.808594 37.820312 4.816406 C 26.738281 4.816406 17.757812 13.796875 17.757812 24.875 C 17.757812 43.300781 27.339844 60.546875 37.820312 68.835938 C 45.160156 63.027344 52.058594 52.828125 55.535156 40.902344 C 51.929688 48.476562 44.886719 55.4375 39.867188 58.894531 Z M 39.867188 58.894531 " fill-opacity="1" fill-rule="nonzero"/></g><g clip-path="url(#268f85d677)"><path fill="#7ed957" d="M 44.050781 64.679688 C 46.070312 65.390625 47.347656 66.4375 47.347656 67.605469 C 47.347656 69.753906 43.011719 71.496094 37.664062 71.496094 C 32.320312 71.496094 27.984375 69.753906 27.984375 67.605469 C 27.984375 66.4375 29.257812 65.390625 31.277344 64.679688 C 27.019531 65.675781 24.121094 67.636719 24.121094 69.890625 C 24.121094 73.15625 30.1875 75.800781 37.664062 75.800781 C 45.144531 75.800781 51.207031 73.15625 51.207031 69.890625 C 51.207031 67.636719 48.3125 65.675781 44.050781 64.679688 Z M 44.050781 64.679688 " fill-opacity="1" fill-rule="nonzero"/></g><path fill="#5ce1e6" d="M 31.378906 30.75 L 34.691406 34.972656 C 3.421875 58.097656 15.410156 68.5 30.898438 63.667969 C 4.378906 72.457031 0.632812 52.429688 31.378906 30.75 Z M 31.378906 30.75 " fill-opacity="1" fill-rule="nonzero"/><g fill="#5ce1e6" fill-opacity="1"><g transform="translate(67.965438, 40.333911)"><g><path d="M 15.46875 -13.609375 C 15.019531 -14.421875 14.40625 -15.039062 13.625 -15.46875 C 12.84375 -15.894531 11.9375 -16.109375 10.90625 -16.109375 C 9.75 -16.109375 8.722656 -15.847656 7.828125 -15.328125 C 6.941406 -14.804688 6.242188 -14.0625 5.734375 -13.09375 C 5.234375 -12.132812 4.984375 -11.019531 4.984375 -9.75 C 4.984375 -8.457031 5.238281 -7.328125 5.75 -6.359375 C 6.257812 -5.390625 6.96875 -4.644531 7.875 -4.125 C 8.789062 -3.601562 9.851562 -3.34375 11.0625 -3.34375 C 12.550781 -3.34375 13.769531 -3.738281 14.71875 -4.53125 C 15.664062 -5.320312 16.285156 -6.421875 16.578125 -7.828125 L 9.890625 -7.828125 L 9.890625 -10.8125 L 20.4375 -10.8125 L 20.4375 -7.421875 C 20.175781 -6.054688 19.617188 -4.796875 18.765625 -3.640625 C 17.910156 -2.492188 16.804688 -1.570312 15.453125 -0.875 C 14.109375 -0.175781 12.597656 0.171875 10.921875 0.171875 C 9.046875 0.171875 7.347656 -0.25 5.828125 -1.09375 C 4.316406 -1.945312 3.128906 -3.125 2.265625 -4.625 C 1.398438 -6.132812 0.96875 -7.84375 0.96875 -9.75 C 0.96875 -11.664062 1.398438 -13.378906 2.265625 -14.890625 C 3.128906 -16.410156 4.316406 -17.59375 5.828125 -18.4375 C 7.347656 -19.28125 9.039062 -19.703125 10.90625 -19.703125 C 13.09375 -19.703125 14.992188 -19.164062 16.609375 -18.09375 C 18.222656 -17.03125 19.335938 -15.535156 19.953125 -13.609375 Z M 15.46875 -13.609375 "/></g></g></g><g fill="#5ce1e6" fill-opacity="1"><g transform="translate(88.618573, 40.333911)"><g><path d="M 5.828125 -13.046875 C 6.328125 -13.859375 6.976562 -14.5 7.78125 -14.96875 C 8.59375 -15.4375 9.519531 -15.671875 10.5625 -15.671875 L 10.5625 -11.5625 L 9.53125 -11.5625 C 8.300781 -11.5625 7.375 -11.273438 6.75 -10.703125 C 6.132812 -10.128906 5.828125 -9.125 5.828125 -7.6875 L 5.828125 0 L 1.921875 0 L 1.921875 -15.4375 L 5.828125 -15.4375 Z M 5.828125 -13.046875 "/></g></g></g><g fill="#5ce1e6" fill-opacity="1"><g transform="translate(99.126125, 40.333911)"><g><path d="M 16.28125 -8.0625 C 16.28125 -7.5 16.242188 -6.992188 16.171875 -6.546875 L 4.875 -6.546875 C 4.96875 -5.429688 5.359375 -4.554688 6.046875 -3.921875 C 6.734375 -3.296875 7.578125 -2.984375 8.578125 -2.984375 C 10.035156 -2.984375 11.066406 -3.601562 11.671875 -4.84375 L 15.890625 -4.84375 C 15.441406 -3.363281 14.582031 -2.144531 13.3125 -1.1875 C 12.050781 -0.226562 10.503906 0.25 8.671875 0.25 C 7.179688 0.25 5.847656 -0.078125 4.671875 -0.734375 C 3.492188 -1.398438 2.570312 -2.335938 1.90625 -3.546875 C 1.25 -4.753906 0.921875 -6.144531 0.921875 -7.71875 C 0.921875 -9.320312 1.242188 -10.726562 1.890625 -11.9375 C 2.546875 -13.144531 3.457031 -14.070312 4.625 -14.71875 C 5.800781 -15.363281 7.148438 -15.6875 8.671875 -15.6875 C 10.140625 -15.6875 11.453125 -15.367188 12.609375 -14.734375 C 13.773438 -14.109375 14.675781 -13.210938 15.3125 -12.046875 C 15.957031 -10.890625 16.28125 -9.5625 16.28125 -8.0625 Z M 12.234375 -9.171875 C 12.210938 -10.171875 11.847656 -10.972656 11.140625 -11.578125 C 10.441406 -12.179688 9.582031 -12.484375 8.5625 -12.484375 C 7.59375 -12.484375 6.773438 -12.191406 6.109375 -11.609375 C 5.453125 -11.023438 5.050781 -10.210938 4.90625 -9.171875 Z M 12.234375 -9.171875 "/></g></g></g><g fill="#5ce1e6" fill-opacity="1"><g transform="translate(115.57052, 40.333911)"><g><path d="M 2.703125 -19.453125 L 6.796875 -19.453125 L 3.796875 -12.4375 L 1.109375 -12.4375 Z M 2.703125 -19.453125 "/></g></g></g><g fill="#5ce1e6" fill-opacity="1"><g transform="translate(122.482526, 40.333911)"><g><path d="M 7.828125 0.25 C 6.566406 0.25 5.429688 0.0234375 4.421875 -0.421875 C 3.421875 -0.878906 2.628906 -1.5 2.046875 -2.28125 C 1.460938 -3.0625 1.144531 -3.925781 1.09375 -4.875 L 5.015625 -4.875 C 5.085938 -4.28125 5.378906 -3.785156 5.890625 -3.390625 C 6.398438 -3.003906 7.039062 -2.8125 7.8125 -2.8125 C 8.550781 -2.8125 9.128906 -2.957031 9.546875 -3.25 C 9.960938 -3.550781 10.171875 -3.9375 10.171875 -4.40625 C 10.171875 -4.90625 9.914062 -5.28125 9.40625 -5.53125 C 8.894531 -5.78125 8.082031 -6.054688 6.96875 -6.359375 C 5.8125 -6.640625 4.863281 -6.925781 4.125 -7.21875 C 3.394531 -7.519531 2.765625 -7.972656 2.234375 -8.578125 C 1.710938 -9.191406 1.453125 -10.019531 1.453125 -11.0625 C 1.453125 -11.914062 1.695312 -12.695312 2.1875 -13.40625 C 2.675781 -14.113281 3.378906 -14.671875 4.296875 -15.078125 C 5.222656 -15.484375 6.304688 -15.6875 7.546875 -15.6875 C 9.390625 -15.6875 10.859375 -15.226562 11.953125 -14.3125 C 13.054688 -13.394531 13.660156 -12.15625 13.765625 -10.59375 L 10.03125 -10.59375 C 9.976562 -11.207031 9.722656 -11.691406 9.265625 -12.046875 C 8.804688 -12.410156 8.195312 -12.59375 7.4375 -12.59375 C 6.738281 -12.59375 6.195312 -12.460938 5.8125 -12.203125 C 5.425781 -11.941406 5.234375 -11.582031 5.234375 -11.125 C 5.234375 -10.601562 5.492188 -10.207031 6.015625 -9.9375 C 6.535156 -9.664062 7.347656 -9.390625 8.453125 -9.109375 C 9.566406 -8.835938 10.484375 -8.550781 11.203125 -8.25 C 11.929688 -7.957031 12.554688 -7.5 13.078125 -6.875 C 13.609375 -6.25 13.882812 -5.425781 13.90625 -4.40625 C 13.90625 -3.507812 13.660156 -2.707031 13.171875 -2 C 12.679688 -1.300781 11.972656 -0.75 11.046875 -0.34375 C 10.128906 0.0507812 9.054688 0.25 7.828125 0.25 Z M 7.828125 0.25 "/></g></g></g><g fill="#5ce1e6" fill-opacity="1"><g transform="translate(136.920099, 40.333911)"><g/></g></g><g fill="#5ce1e6" fill-opacity="1"><g transform="translate(142.800822, 40.333911)"><g><path d="M 12.96875 -9.984375 C 14.0625 -9.773438 14.957031 -9.222656 15.65625 -8.328125 C 16.363281 -7.441406 16.71875 -6.421875 16.71875 -5.265625 C 16.71875 -4.222656 16.460938 -3.304688 15.953125 -2.515625 C 15.441406 -1.734375 14.703125 -1.117188 13.734375 -0.671875 C 12.773438 -0.222656 11.632812 0 10.3125 0 L 1.921875 0 L 1.921875 -19.453125 L 9.953125 -19.453125 C 11.273438 -19.453125 12.410156 -19.238281 13.359375 -18.8125 C 14.316406 -18.382812 15.039062 -17.789062 15.53125 -17.03125 C 16.03125 -16.269531 16.28125 -15.40625 16.28125 -14.4375 C 16.28125 -13.300781 15.976562 -12.351562 15.375 -11.59375 C 14.769531 -10.832031 13.96875 -10.296875 12.96875 -9.984375 Z M 5.828125 -11.421875 L 9.390625 -11.421875 C 10.316406 -11.421875 11.03125 -11.628906 11.53125 -12.046875 C 12.039062 -12.472656 12.296875 -13.078125 12.296875 -13.859375 C 12.296875 -14.640625 12.039062 -15.242188 11.53125 -15.671875 C 11.03125 -16.097656 10.316406 -16.3125 9.390625 -16.3125 L 5.828125 -16.3125 Z M 9.75 -3.171875 C 10.695312 -3.171875 11.4375 -3.394531 11.96875 -3.84375 C 12.5 -4.289062 12.765625 -4.925781 12.765625 -5.75 C 12.765625 -6.582031 12.484375 -7.234375 11.921875 -7.703125 C 11.367188 -8.179688 10.617188 -8.421875 9.671875 -8.421875 L 5.828125 -8.421875 L 5.828125 -3.171875 Z M 9.75 -3.171875 "/></g></g></g><g fill="#5ce1e6" fill-opacity="1"><g transform="translate(159.969893, 40.333911)"><g><path d="M 8.78125 0.25 C 7.289062 0.25 5.953125 -0.078125 4.765625 -0.734375 C 3.578125 -1.398438 2.644531 -2.335938 1.96875 -3.546875 C 1.289062 -4.753906 0.953125 -6.144531 0.953125 -7.71875 C 0.953125 -9.300781 1.296875 -10.695312 1.984375 -11.90625 C 2.679688 -13.113281 3.632812 -14.046875 4.84375 -14.703125 C 6.050781 -15.359375 7.398438 -15.6875 8.890625 -15.6875 C 10.378906 -15.6875 11.726562 -15.359375 12.9375 -14.703125 C 14.144531 -14.046875 15.097656 -13.113281 15.796875 -11.90625 C 16.492188 -10.695312 16.84375 -9.300781 16.84375 -7.71875 C 16.84375 -6.144531 16.484375 -4.753906 15.765625 -3.546875 C 15.046875 -2.335938 14.078125 -1.398438 12.859375 -0.734375 C 11.640625 -0.078125 10.28125 0.25 8.78125 0.25 Z M 8.78125 -3.15625 C 9.488281 -3.15625 10.148438 -3.328125 10.765625 -3.671875 C 11.390625 -4.015625 11.890625 -4.53125 12.265625 -5.21875 C 12.640625 -5.90625 12.828125 -6.738281 12.828125 -7.71875 C 12.828125 -9.1875 12.441406 -10.316406 11.671875 -11.109375 C 10.898438 -11.898438 9.957031 -12.296875 8.84375 -12.296875 C 7.71875 -12.296875 6.78125 -11.898438 6.03125 -11.109375 C 5.28125 -10.316406 4.90625 -9.1875 4.90625 -7.71875 C 4.90625 -6.25 5.269531 -5.117188 6 -4.328125 C 6.738281 -3.546875 7.664062 -3.15625 8.78125 -3.15625 Z M 8.78125 -3.15625 "/></g></g></g><g fill="#5ce1e6" fill-opacity="1"><g transform="translate(176.999604, 40.333911)"><g><path d="M 8.78125 0.25 C 7.289062 0.25 5.953125 -0.078125 4.765625 -0.734375 C 3.578125 -1.398438 2.644531 -2.335938 1.96875 -3.546875 C 1.289062 -4.753906 0.953125 -6.144531 0.953125 -7.71875 C 0.953125 -9.300781 1.296875 -10.695312 1.984375 -11.90625 C 2.679688 -13.113281 3.632812 -14.046875 4.84375 -14.703125 C 6.050781 -15.359375 7.398438 -15.6875 8.890625 -15.6875 C 10.378906 -15.6875 11.726562 -15.359375 12.9375 -14.703125 C 14.144531 -14.046875 15.097656 -13.113281 15.796875 -11.90625 C 16.492188 -10.695312 16.84375 -9.300781 16.84375 -7.71875 C 16.84375 -6.144531 16.484375 -4.753906 15.765625 -3.546875 C 15.046875 -2.335938 14.078125 -1.398438 12.859375 -0.734375 C 11.640625 -0.078125 10.28125 0.25 8.78125 0.25 Z M 8.78125 -3.15625 C 9.488281 -3.15625 10.148438 -3.328125 10.765625 -3.671875 C 11.390625 -4.015625 11.890625 -4.53125 12.265625 -5.21875 C 12.640625 -5.90625 12.828125 -6.738281 12.828125 -7.71875 C 12.828125 -9.1875 12.441406 -10.316406 11.671875 -11.109375 C 10.898438 -11.898438 9.957031 -12.296875 8.84375 -12.296875 C 7.71875 -12.296875 6.78125 -11.898438 6.03125 -11.109375 C 5.28125 -10.316406 4.90625 -9.1875 4.90625 -7.71875 C 4.90625 -6.25 5.269531 -5.117188 6 -4.328125 C 6.738281 -3.546875 7.664062 -3.15625 8.78125 -3.15625 Z M 8.78125 -3.15625 "/></g></g></g><g fill="#5ce1e6" fill-opacity="1"><g transform="translate(194.029316, 40.333911)"><g><path d="M 11.0625 0 L 5.828125 -6.578125 L 5.828125 0 L 1.921875 0 L 1.921875 -20.625 L 5.828125 -20.625 L 5.828125 -8.890625 L 11.015625 -15.4375 L 16.078125 -15.4375 L 9.28125 -7.6875 L 16.140625 0 Z M 11.0625 0 "/></g></g></g><g fill="#5ce1e6" fill-opacity="1"><g transform="translate(209.553919, 40.333911)"><g><path d="M 3.90625 -17.28125 C 3.21875 -17.28125 2.644531 -17.5 2.1875 -17.9375 C 1.726562 -18.375 1.5 -18.914062 1.5 -19.5625 C 1.5 -20.21875 1.726562 -20.765625 2.1875 -21.203125 C 2.644531 -21.640625 3.21875 -21.859375 3.90625 -21.859375 C 4.59375 -21.859375 5.160156 -21.640625 5.609375 -21.203125 C 6.066406 -20.765625 6.296875 -20.21875 6.296875 -19.5625 C 6.296875 -18.914062 6.066406 -18.375 5.609375 -17.9375 C 5.160156 -17.5 4.59375 -17.28125 3.90625 -17.28125 Z M 5.828125 -15.4375 L 5.828125 0 L 1.921875 0 L 1.921875 -15.4375 Z M 5.828125 -15.4375 "/></g></g></g><g fill="#5ce1e6" fill-opacity="1"><g transform="translate(216.549539, 40.333911)"><g><path d="M 10.484375 -15.671875 C 12.316406 -15.671875 13.800781 -15.085938 14.9375 -13.921875 C 16.070312 -12.765625 16.640625 -11.144531 16.640625 -9.0625 L 16.640625 0 L 12.734375 0 L 12.734375 -8.53125 C 12.734375 -9.757812 12.425781 -10.703125 11.8125 -11.359375 C 11.207031 -12.015625 10.375 -12.34375 9.3125 -12.34375 C 8.226562 -12.34375 7.375 -12.015625 6.75 -11.359375 C 6.132812 -10.703125 5.828125 -9.757812 5.828125 -8.53125 L 5.828125 0 L 1.921875 0 L 1.921875 -15.4375 L 5.828125 -15.4375 L 5.828125 -13.515625 C 6.347656 -14.179688 7.007812 -14.707031 7.8125 -15.09375 C 8.625 -15.476562 9.515625 -15.671875 10.484375 -15.671875 Z M 10.484375 -15.671875 "/></g></g></g><g fill="#5ce1e6" fill-opacity="1"><g transform="translate(234.220324, 40.333911)"><g><path d="M 7.96875 -15.6875 C 9.125 -15.6875 10.140625 -15.457031 11.015625 -15 C 11.890625 -14.550781 12.578125 -13.960938 13.078125 -13.234375 L 13.078125 -15.4375 L 17 -15.4375 L 17 0.109375 C 17 1.546875 16.710938 2.820312 16.140625 3.9375 C 15.566406 5.0625 14.703125 5.953125 13.546875 6.609375 C 12.390625 7.273438 10.992188 7.609375 9.359375 7.609375 C 7.171875 7.609375 5.375 7.097656 3.96875 6.078125 C 2.570312 5.054688 1.78125 3.660156 1.59375 1.890625 L 5.46875 1.890625 C 5.664062 2.597656 6.101562 3.160156 6.78125 3.578125 C 7.46875 3.992188 8.289062 4.203125 9.25 4.203125 C 10.382812 4.203125 11.304688 3.863281 12.015625 3.1875 C 12.722656 2.507812 13.078125 1.484375 13.078125 0.109375 L 13.078125 -2.28125 C 12.578125 -1.5625 11.882812 -0.957031 11 -0.46875 C 10.113281 0.0078125 9.101562 0.25 7.96875 0.25 C 6.664062 0.25 5.472656 -0.0820312 4.390625 -0.75 C 3.316406 -1.414062 2.46875 -2.359375 1.84375 -3.578125 C 1.226562 -4.796875 0.921875 -6.195312 0.921875 -7.78125 C 0.921875 -9.34375 1.226562 -10.726562 1.84375 -11.9375 C 2.46875 -13.144531 3.316406 -14.070312 4.390625 -14.71875 C 5.460938 -15.363281 6.65625 -15.6875 7.96875 -15.6875 Z M 13.078125 -7.71875 C 13.078125 -8.664062 12.890625 -9.476562 12.515625 -10.15625 C 12.140625 -10.832031 11.632812 -11.351562 11 -11.71875 C 10.375 -12.082031 9.695312 -12.265625 8.96875 -12.265625 C 8.25 -12.265625 7.582031 -12.085938 6.96875 -11.734375 C 6.351562 -11.378906 5.851562 -10.863281 5.46875 -10.1875 C 5.09375 -9.507812 4.90625 -8.707031 4.90625 -7.78125 C 4.90625 -6.851562 5.09375 -6.039062 5.46875 -5.34375 C 5.851562 -4.644531 6.359375 -4.109375 6.984375 -3.734375 C 7.609375 -3.359375 8.269531 -3.171875 8.96875 -3.171875 C 9.695312 -3.171875 10.375 -3.351562 11 -3.71875 C 11.632812 -4.082031 12.140625 -4.601562 12.515625 -5.28125 C 12.890625 -5.957031 13.078125 -6.769531 13.078125 -7.71875 Z M 13.078125 -7.71875 "/></g></g></g><g fill="#5ce1e6" fill-opacity="1"><g transform="translate(67.965438, 63.900297)"><g><path d="M 5 -6.640625 L 5 -5.75 L 3.234375 -5.75 L 3.234375 0 L 2.140625 0 L 2.140625 -5.75 L 0.375 -5.75 L 0.375 -6.640625 Z M 5 -6.640625 "/></g></g></g><g fill="#5ce1e6" fill-opacity="1"><g transform="translate(74.564011, 63.900297)"><g><path d="M 4.15625 0 L 2.640625 -2.65625 L 1.796875 -2.65625 L 1.796875 0 L 0.71875 0 L 0.71875 -6.640625 L 3 -6.640625 C 3.507812 -6.640625 3.941406 -6.546875 4.296875 -6.359375 C 4.648438 -6.179688 4.914062 -5.941406 5.09375 -5.640625 C 5.269531 -5.347656 5.359375 -5.019531 5.359375 -4.65625 C 5.359375 -4.21875 5.226562 -3.820312 4.96875 -3.46875 C 4.71875 -3.113281 4.332031 -2.875 3.8125 -2.75 L 5.453125 0 Z M 1.796875 -3.515625 L 3 -3.515625 C 3.414062 -3.515625 3.722656 -3.617188 3.921875 -3.828125 C 4.128906 -4.035156 4.234375 -4.3125 4.234375 -4.65625 C 4.234375 -5 4.128906 -5.265625 3.921875 -5.453125 C 3.722656 -5.648438 3.414062 -5.75 3 -5.75 L 1.796875 -5.75 Z M 1.796875 -3.515625 "/></g></g></g><g fill="#5ce1e6" fill-opacity="1"><g transform="translate(81.811786, 63.900297)"><g><path d="M 4.71875 -1.359375 L 1.9375 -1.359375 L 1.453125 0 L 0.328125 0 L 2.703125 -6.640625 L 3.96875 -6.640625 L 6.34375 0 L 5.1875 0 Z M 4.40625 -2.25 L 3.328125 -5.328125 L 2.25 -2.25 Z M 4.40625 -2.25 "/></g></g></g><g fill="#5ce1e6" fill-opacity="1"><g transform="translate(89.680112, 63.900297)"><g><path d="M 6.4375 -6.640625 L 3.9375 0 L 2.6875 0 L 0.1875 -6.640625 L 1.34375 -6.640625 L 3.3125 -1.109375 L 5.28125 -6.640625 Z M 6.4375 -6.640625 "/></g></g></g><g fill="#5ce1e6" fill-opacity="1"><g transform="translate(97.519799, 63.900297)"><g><path d="M 1.796875 -5.75 L 1.796875 -3.8125 L 4.09375 -3.8125 L 4.09375 -2.921875 L 1.796875 -2.921875 L 1.796875 -0.890625 L 4.375 -0.890625 L 4.375 0 L 0.71875 0 L 0.71875 -6.640625 L 4.375 -6.640625 L 4.375 -5.75 Z M 1.796875 -5.75 "/></g></g></g><g fill="#5ce1e6" fill-opacity="1"><g transform="translate(103.736484, 63.900297)"><g><path d="M 1.796875 -0.875 L 4.046875 -0.875 L 4.046875 0 L 0.71875 0 L 0.71875 -6.640625 L 1.796875 -6.640625 Z M 1.796875 -0.875 "/></g></g></g><g fill="#5ce1e6" fill-opacity="1"><g transform="translate(109.189405, 63.900297)"><g/></g></g><g fill="#5ce1e6" fill-opacity="1"><g transform="translate(112.885671, 63.900297)"><g><path d="M 4.71875 -1.359375 L 1.9375 -1.359375 L 1.453125 0 L 0.328125 0 L 2.703125 -6.640625 L 3.96875 -6.640625 L 6.34375 0 L 5.1875 0 Z M 4.40625 -2.25 L 3.328125 -5.328125 L 2.25 -2.25 Z M 4.40625 -2.25 "/></g></g></g><g fill="#5ce1e6" fill-opacity="1"><g transform="translate(120.753996, 63.900297)"><g><path d="M 6.171875 0 L 5.078125 0 L 1.796875 -4.953125 L 1.796875 0 L 0.71875 0 L 0.71875 -6.640625 L 1.796875 -6.640625 L 5.078125 -1.703125 L 5.078125 -6.640625 L 6.171875 -6.640625 Z M 6.171875 0 "/></g></g></g><g fill="#5ce1e6" fill-opacity="1"><g transform="translate(128.851456, 63.900297)"><g><path d="M 2.890625 -6.640625 C 3.585938 -6.640625 4.203125 -6.503906 4.734375 -6.234375 C 5.265625 -5.960938 5.675781 -5.570312 5.96875 -5.0625 C 6.257812 -4.5625 6.40625 -3.972656 6.40625 -3.296875 C 6.40625 -2.617188 6.257812 -2.03125 5.96875 -1.53125 C 5.675781 -1.039062 5.265625 -0.660156 4.734375 -0.390625 C 4.203125 -0.128906 3.585938 0 2.890625 0 L 0.71875 0 L 0.71875 -6.640625 Z M 2.890625 -0.890625 C 3.660156 -0.890625 4.25 -1.097656 4.65625 -1.515625 C 5.070312 -1.929688 5.28125 -2.523438 5.28125 -3.296875 C 5.28125 -4.066406 5.070312 -4.664062 4.65625 -5.09375 C 4.25 -5.53125 3.660156 -5.75 2.890625 -5.75 L 1.796875 -5.75 L 1.796875 -0.890625 Z M 2.890625 -0.890625 "/></g></g></g><g fill="#5ce1e6" fill-opacity="1"><g transform="translate(136.834342, 63.900297)"><g/></g></g><g fill="#5ce1e6" fill-opacity="1"><g transform="translate(140.530606, 63.900297)"><g><path d="M 5 -6.640625 L 5 -5.75 L 3.234375 -5.75 L 3.234375 0 L 2.140625 0 L 2.140625 -5.75 L 0.375 -5.75 L 0.375 -6.640625 Z M 5 -6.640625 "/></g></g></g><g fill="#5ce1e6" fill-opacity="1"><g transform="translate(147.129177, 63.900297)"><g><path d="M 3.75 0.0625 C 3.125 0.0625 2.550781 -0.078125 2.03125 -0.359375 C 1.519531 -0.648438 1.113281 -1.054688 0.8125 -1.578125 C 0.507812 -2.097656 0.359375 -2.679688 0.359375 -3.328125 C 0.359375 -3.984375 0.507812 -4.566406 0.8125 -5.078125 C 1.113281 -5.597656 1.519531 -6 2.03125 -6.28125 C 2.550781 -6.570312 3.125 -6.71875 3.75 -6.71875 C 4.363281 -6.71875 4.929688 -6.570312 5.453125 -6.28125 C 5.972656 -6 6.378906 -5.597656 6.671875 -5.078125 C 6.972656 -4.566406 7.125 -3.984375 7.125 -3.328125 C 7.125 -2.679688 6.972656 -2.097656 6.671875 -1.578125 C 6.378906 -1.054688 5.972656 -0.648438 5.453125 -0.359375 C 4.929688 -0.078125 4.363281 0.0625 3.75 0.0625 Z M 3.75 -0.875 C 4.1875 -0.875 4.578125 -0.972656 4.921875 -1.171875 C 5.265625 -1.378906 5.53125 -1.664062 5.71875 -2.03125 C 5.914062 -2.40625 6.015625 -2.835938 6.015625 -3.328125 C 6.015625 -3.816406 5.914062 -4.242188 5.71875 -4.609375 C 5.53125 -4.984375 5.265625 -5.269531 4.921875 -5.46875 C 4.578125 -5.664062 4.1875 -5.765625 3.75 -5.765625 C 3.300781 -5.765625 2.90625 -5.664062 2.5625 -5.46875 C 2.21875 -5.269531 1.945312 -4.984375 1.75 -4.609375 C 1.5625 -4.242188 1.46875 -3.816406 1.46875 -3.328125 C 1.46875 -2.835938 1.5625 -2.40625 1.75 -2.03125 C 1.945312 -1.664062 2.21875 -1.378906 2.5625 -1.171875 C 2.90625 -0.972656 3.300781 -0.875 3.75 -0.875 Z M 3.75 -0.875 "/></g></g></g><g fill="#5ce1e6" fill-opacity="1"><g transform="translate(155.828098, 63.900297)"><g><path d="M 1.796875 -6.640625 L 1.796875 -2.40625 C 1.796875 -1.90625 1.925781 -1.523438 2.1875 -1.265625 C 2.457031 -1.015625 2.828125 -0.890625 3.296875 -0.890625 C 3.773438 -0.890625 4.144531 -1.015625 4.40625 -1.265625 C 4.664062 -1.523438 4.796875 -1.90625 4.796875 -2.40625 L 4.796875 -6.640625 L 5.890625 -6.640625 L 5.890625 -2.421875 C 5.890625 -1.878906 5.769531 -1.421875 5.53125 -1.046875 C 5.300781 -0.671875 4.988281 -0.390625 4.59375 -0.203125 C 4.195312 -0.0234375 3.757812 0.0625 3.28125 0.0625 C 2.800781 0.0625 2.363281 -0.0234375 1.96875 -0.203125 C 1.582031 -0.390625 1.273438 -0.671875 1.046875 -1.046875 C 0.816406 -1.421875 0.703125 -1.878906 0.703125 -2.421875 L 0.703125 -6.640625 Z M 1.796875 -6.640625 "/></g></g></g><g fill="#5ce1e6" fill-opacity="1"><g transform="translate(163.629596, 63.900297)"><g><path d="M 4.15625 0 L 2.640625 -2.65625 L 1.796875 -2.65625 L 1.796875 0 L 0.71875 0 L 0.71875 -6.640625 L 3 -6.640625 C 3.507812 -6.640625 3.941406 -6.546875 4.296875 -6.359375 C 4.648438 -6.179688 4.914062 -5.941406 5.09375 -5.640625 C 5.269531 -5.347656 5.359375 -5.019531 5.359375 -4.65625 C 5.359375 -4.21875 5.226562 -3.820312 4.96875 -3.46875 C 4.71875 -3.113281 4.332031 -2.875 3.8125 -2.75 L 5.453125 0 Z M 1.796875 -3.515625 L 3 -3.515625 C 3.414062 -3.515625 3.722656 -3.617188 3.921875 -3.828125 C 4.128906 -4.035156 4.234375 -4.3125 4.234375 -4.65625 C 4.234375 -5 4.128906 -5.265625 3.921875 -5.453125 C 3.722656 -5.648438 3.414062 -5.75 3 -5.75 L 1.796875 -5.75 Z M 1.796875 -3.515625 "/></g></g></g><g fill="#5ce1e6" fill-opacity="1"><g transform="translate(170.877375, 63.900297)"><g><path d="M 1.796875 -6.640625 L 1.796875 0 L 0.71875 0 L 0.71875 -6.640625 Z M 1.796875 -6.640625 "/></g></g></g><g fill="#5ce1e6" fill-opacity="1"><g transform="translate(174.611836, 63.900297)"><g><path d="M 2.90625 0.0625 C 2.457031 0.0625 2.054688 -0.015625 1.703125 -0.171875 C 1.347656 -0.328125 1.066406 -0.546875 0.859375 -0.828125 C 0.648438 -1.117188 0.546875 -1.453125 0.546875 -1.828125 L 1.71875 -1.828125 C 1.738281 -1.546875 1.847656 -1.3125 2.046875 -1.125 C 2.253906 -0.9375 2.539062 -0.84375 2.90625 -0.84375 C 3.28125 -0.84375 3.570312 -0.929688 3.78125 -1.109375 C 3.988281 -1.296875 4.09375 -1.535156 4.09375 -1.828125 C 4.09375 -2.046875 4.023438 -2.222656 3.890625 -2.359375 C 3.765625 -2.503906 3.601562 -2.613281 3.40625 -2.6875 C 3.21875 -2.769531 2.953125 -2.851562 2.609375 -2.9375 C 2.171875 -3.050781 1.816406 -3.164062 1.546875 -3.28125 C 1.273438 -3.40625 1.046875 -3.585938 0.859375 -3.828125 C 0.671875 -4.078125 0.578125 -4.410156 0.578125 -4.828125 C 0.578125 -5.210938 0.671875 -5.546875 0.859375 -5.828125 C 1.046875 -6.117188 1.3125 -6.335938 1.65625 -6.484375 C 2 -6.640625 2.398438 -6.71875 2.859375 -6.71875 C 3.492188 -6.71875 4.015625 -6.554688 4.421875 -6.234375 C 4.835938 -5.910156 5.066406 -5.472656 5.109375 -4.921875 L 3.921875 -4.921875 C 3.898438 -5.160156 3.78125 -5.363281 3.5625 -5.53125 C 3.351562 -5.707031 3.078125 -5.796875 2.734375 -5.796875 C 2.421875 -5.796875 2.164062 -5.710938 1.96875 -5.546875 C 1.78125 -5.390625 1.6875 -5.164062 1.6875 -4.875 C 1.6875 -4.664062 1.742188 -4.492188 1.859375 -4.359375 C 1.984375 -4.234375 2.140625 -4.128906 2.328125 -4.046875 C 2.523438 -3.972656 2.789062 -3.894531 3.125 -3.8125 C 3.5625 -3.6875 3.914062 -3.5625 4.1875 -3.4375 C 4.46875 -3.320312 4.703125 -3.140625 4.890625 -2.890625 C 5.085938 -2.640625 5.1875 -2.300781 5.1875 -1.875 C 5.1875 -1.539062 5.097656 -1.222656 4.921875 -0.921875 C 4.742188 -0.628906 4.476562 -0.390625 4.125 -0.203125 C 3.78125 -0.0234375 3.375 0.0625 2.90625 0.0625 Z M 2.90625 0.0625 "/></g></g></g><g fill="#5ce1e6" fill-opacity="1"><g transform="translate(181.592289, 63.900297)"><g><path d="M 7.703125 -6.640625 L 7.703125 0 L 6.609375 0 L 6.609375 -4.546875 L 4.59375 0 L 3.84375 0 L 1.796875 -4.546875 L 1.796875 0 L 0.71875 0 L 0.71875 -6.640625 L 1.890625 -6.640625 L 4.21875 -1.4375 L 6.546875 -6.640625 Z M 7.703125 -6.640625 "/></g></g></g><g fill="#5ce1e6" fill-opacity="1"><g transform="translate(191.226823, 63.900297)"><g/></g></g><g fill="#5ce1e6" fill-opacity="1"><g transform="translate(194.923093, 63.900297)"><g><path d="M 4.71875 -1.359375 L 1.9375 -1.359375 L 1.453125 0 L 0.328125 0 L 2.703125 -6.640625 L 3.96875 -6.640625 L 6.34375 0 L 5.1875 0 Z M 4.40625 -2.25 L 3.328125 -5.328125 L 2.25 -2.25 Z M 4.40625 -2.25 "/></g></g></g><g fill="#5ce1e6" fill-opacity="1"><g transform="translate(202.791423, 63.900297)"><g><path d="M 5.515625 -4.71875 C 5.347656 -5.050781 5.109375 -5.300781 4.796875 -5.46875 C 4.492188 -5.644531 4.144531 -5.734375 3.75 -5.734375 C 3.300781 -5.734375 2.90625 -5.632812 2.5625 -5.4375 C 2.21875 -5.238281 1.945312 -4.957031 1.75 -4.59375 C 1.5625 -4.226562 1.46875 -3.804688 1.46875 -3.328125 C 1.46875 -2.847656 1.5625 -2.425781 1.75 -2.0625 C 1.945312 -1.695312 2.21875 -1.414062 2.5625 -1.21875 C 2.90625 -1.019531 3.300781 -0.921875 3.75 -0.921875 C 4.332031 -0.921875 4.804688 -1.085938 5.171875 -1.421875 C 5.546875 -1.753906 5.773438 -2.203125 5.859375 -2.765625 L 3.375 -2.765625 L 3.375 -3.640625 L 7.03125 -3.640625 L 7.03125 -2.78125 C 6.957031 -2.269531 6.769531 -1.796875 6.46875 -1.359375 C 6.175781 -0.929688 5.789062 -0.585938 5.3125 -0.328125 C 4.84375 -0.0664062 4.320312 0.0625 3.75 0.0625 C 3.125 0.0625 2.550781 -0.0820312 2.03125 -0.375 C 1.519531 -0.664062 1.113281 -1.066406 0.8125 -1.578125 C 0.507812 -2.097656 0.359375 -2.679688 0.359375 -3.328125 C 0.359375 -3.984375 0.507812 -4.566406 0.8125 -5.078125 C 1.113281 -5.597656 1.519531 -6 2.03125 -6.28125 C 2.550781 -6.570312 3.125 -6.71875 3.75 -6.71875 C 4.445312 -6.71875 5.070312 -6.546875 5.625 -6.203125 C 6.175781 -5.859375 6.578125 -5.363281 6.828125 -4.71875 Z M 5.515625 -4.71875 "/></g></g></g><g fill="#5ce1e6" fill-opacity="1"><g transform="translate(211.385327, 63.900297)"><g><path d="M 1.796875 -5.75 L 1.796875 -3.8125 L 4.09375 -3.8125 L 4.09375 -2.921875 L 1.796875 -2.921875 L 1.796875 -0.890625 L 4.375 -0.890625 L 4.375 0 L 0.71875 0 L 0.71875 -6.640625 L 4.375 -6.640625 L 4.375 -5.75 Z M 1.796875 -5.75 "/></g></g></g><g fill="#5ce1e6" fill-opacity="1"><g transform="translate(217.602015, 63.900297)"><g><path d="M 6.171875 0 L 5.078125 0 L 1.796875 -4.953125 L 1.796875 0 L 0.71875 0 L 0.71875 -6.640625 L 1.796875 -6.640625 L 5.078125 -1.703125 L 5.078125 -6.640625 L 6.171875 -6.640625 Z M 6.171875 0 "/></g></g></g><g fill="#5ce1e6" fill-opacity="1"><g transform="translate(225.699481, 63.900297)"><g><path d="M 0.359375 -3.328125 C 0.359375 -3.984375 0.507812 -4.566406 0.8125 -5.078125 C 1.113281 -5.597656 1.519531 -6 2.03125 -6.28125 C 2.550781 -6.570312 3.125 -6.71875 3.75 -6.71875 C 4.445312 -6.71875 5.070312 -6.546875 5.625 -6.203125 C 6.175781 -5.859375 6.578125 -5.363281 6.828125 -4.71875 L 5.515625 -4.71875 C 5.347656 -5.070312 5.109375 -5.332031 4.796875 -5.5 C 4.492188 -5.675781 4.144531 -5.765625 3.75 -5.765625 C 3.300781 -5.765625 2.90625 -5.664062 2.5625 -5.46875 C 2.21875 -5.269531 1.945312 -4.984375 1.75 -4.609375 C 1.5625 -4.242188 1.46875 -3.816406 1.46875 -3.328125 C 1.46875 -2.835938 1.5625 -2.40625 1.75 -2.03125 C 1.945312 -1.664062 2.21875 -1.382812 2.5625 -1.1875 C 2.90625 -0.988281 3.300781 -0.890625 3.75 -0.890625 C 4.144531 -0.890625 4.492188 -0.972656 4.796875 -1.140625 C 5.109375 -1.316406 5.347656 -1.578125 5.515625 -1.921875 L 6.828125 -1.921875 C 6.578125 -1.285156 6.175781 -0.796875 5.625 -0.453125 C 5.070312 -0.109375 4.445312 0.0625 3.75 0.0625 C 3.125 0.0625 2.550781 -0.0820312 2.03125 -0.375 C 1.519531 -0.664062 1.113281 -1.066406 0.8125 -1.578125 C 0.507812 -2.097656 0.359375 -2.679688 0.359375 -3.328125 Z M 0.359375 -3.328125 "/></g></g></g><g fill="#5ce1e6" fill-opacity="1"><g transform="translate(234.293385, 63.900297)"><g><path d="M 5.625 -6.640625 L 3.4375 -2.40625 L 3.4375 0 L 2.34375 0 L 2.34375 -2.40625 L 0.140625 -6.640625 L 1.359375 -6.640625 L 2.890625 -3.375 L 4.4375 -6.640625 Z M 5.625 -6.640625 "/></g></g></g></svg>