<svg xmlns="http://www.w3.org/2000/svg" version="1.1" viewBox="-5.0 -10.0 110.0 135.0">
 <g>
  <path d="m82.512 64.367c0.050781-0.074219 0.13281-0.11719 0.16797-0.19922 0.027343-0.0625 0.003906-0.12891 0.023437-0.19141 0.042969-0.14453 0.054687-0.28125 0.054687-0.43359 0-0.15234-0.011718-0.28906-0.054687-0.43359-0.019531-0.0625 0.003906-0.13281-0.023437-0.19141-0.035157-0.082031-0.12109-0.125-0.16797-0.19922s-0.054688-0.16797-0.11328-0.23438l-12.5-13.543c-0.29688-0.32031-0.71094-0.50391-1.1484-0.50391h-8.6836c0.53906-0.92188 0.87109-1.9805 0.87109-3.125 0-3.4453-2.8047-6.25-6.25-6.25h-21.875v-1.0117l7.8867-9.8594c2.8867-3.6133 3.582-8.543 1.8125-12.875-1.6797-4.1133-5.2539-6.8789-9.5547-7.4023-1.1172-0.13672-2.3008-0.13672-3.4102 0-4.3047 0.51953-7.8789 3.2891-9.5586 7.4023-1.7695 4.332-1.0742 9.2617 1.8125 12.875l7.8867 9.8594v2.5742c0 0.86328 0.69922 1.5625 1.5625 1.5625h23.438c1.7227 0 3.125 1.4023 3.125 3.125s-1.4023 3.125-3.125 3.125h-35.938c-0.62109 0-1.1836 0.36719-1.4297 0.93359-0.25 0.57031-0.13672 1.2305 0.28516 1.6875l11.52 12.48-11.52 12.48c-0.0625 0.066407-0.066407 0.16016-0.11328 0.23438-0.050782 0.074219-0.13281 0.11719-0.16797 0.19922-0.027344 0.0625-0.003907 0.12891-0.023438 0.19531-0.042969 0.14453-0.054687 0.28125-0.054687 0.43359 0 0.15234 0.011718 0.28906 0.054687 0.43359 0.019531 0.0625-0.003906 0.13281 0.023438 0.19531 0.035156 0.082031 0.12109 0.125 0.16797 0.19922 0.046874 0.074219 0.054687 0.16797 0.11328 0.23438l12.5 13.543c0.29297 0.32031 0.71094 0.50391 1.1484 0.50391h50c0.62109 0 1.1797-0.36719 1.4297-0.93359 0.25-0.57031 0.13672-1.2305-0.28516-1.6875l-11.52-12.48 11.52-12.48c0.0625-0.066406 0.066406-0.16016 0.11328-0.23438zm-59.633-47.867c1.2461-3.0508 3.8789-5.0977 7.0469-5.4844 0.43359-0.054687 0.875-0.078125 1.3242-0.078125s0.89453 0.027344 1.3242 0.078125h0.003906c3.1641 0.38281 5.7969 2.4297 7.043 5.4805 1.3398 3.2812 0.82031 7.0117-1.3633 9.7383l-7.0078 8.7617-7.0078-8.7617c-2.1836-2.7266-2.7031-6.457-1.3633-9.7383zm13.926 35.062c-0.53906 0.92188-0.87109 1.9805-0.87109 3.125 0 3.4453 2.8047 6.25 6.25 6.25h10.938c0.86328 0 1.5625-0.69922 1.5625-1.5625s-0.69922-1.5625-1.5625-1.5625h-10.938c-1.7227 0-3.125-1.4023-3.125-3.125s1.4023-3.125 3.125-3.125h25.879l9.6172 10.418h-45.75l-9.6133-10.418zm-4.875 37.5-9.6133-10.418h45.746l9.6172 10.418zm36.133-13.543h-45.742l9.6133-10.414h45.75l-9.6172 10.414z" fill="white"/>
  <path d="m37.5 20.312c0-3.4453-2.8047-6.25-6.25-6.25s-6.25 2.8047-6.25 6.25 2.8047 6.25 6.25 6.25 6.25-2.8047 6.25-6.25zm-9.375 0c0-1.7227 1.4023-3.125 3.125-3.125s3.125 1.4023 3.125 3.125-1.4023 3.125-3.125 3.125-3.125-1.4023-3.125-3.125z" fill="white"/>
 </g>

</svg>