<svg xmlns="http://www.w3.org/2000/svg" version="1.1" viewBox="-5.0 -10.0 110.0 135.0">
 <path d="m27.398 45.602c-0.88281 0-1.5977-0.71875-1.5977-1.6016v-4.4766h-5.8008c-0.88281 0-1.6016-0.71484-1.6016-1.6016v-27.922c0-0.88281 0.71875-1.6016 1.6016-1.6016h60c0.42578 0 0.83203 0.17187 1.1328 0.46875 0.29688 0.30078 0.46875 0.70703 0.46875 1.1328v27.922c0 0.42578-0.17187 0.83203-0.46875 1.1328-0.30078 0.30078-0.70703 0.46875-1.1328 0.46875h-44.836l-6.7305 5.6992c-0.28906 0.24219-0.65625 0.37891-1.0352 0.37891zm-5.8008-9.2734h5.8008v-0.003906c0.42578 0 0.83203 0.17188 1.1328 0.46875 0.30078 0.30078 0.46875 0.70703 0.46875 1.1328v2.625l4.5469-3.8516c0.28516-0.24219 0.65234-0.37891 1.0312-0.37891h43.82v-24.719h-56.797z" fill="white"/>
 <path d="m35.773 32.562c-0.25781 0-0.51172-0.0625-0.74219-0.18359l-3.832-2-3.832 2c-0.53906 0.28125-1.1914 0.23438-1.6836-0.125-0.49219-0.35938-0.73438-0.96484-0.63281-1.5664l0.73047-4.2305-3.0938-3c-0.4375-0.42578-0.59766-1.0625-0.41016-1.6406 0.19141-0.58203 0.69141-1.0039 1.293-1.0898l4.2812-0.61719 1.9141-3.8555 0.003906-0.003906c0.26953-0.54297 0.82422-0.88672 1.4297-0.88672 0.60938 0 1.1641 0.34375 1.4336 0.88672l1.9141 3.8555 4.2812 0.61719v0.003906c0.60547 0.085938 1.1055 0.50781 1.2969 1.0898 0.1875 0.57812 0.027344 1.2148-0.41016 1.6406l-3.0938 3 0.73047 4.2305c0.078126 0.46484-0.050781 0.94531-0.35547 1.3047-0.30078 0.35937-0.75 0.57031-1.2227 0.57031zm-8.5195-9.1328 1.3633 1.3203-0.003907-0.003906c0.38281 0.36719 0.55469 0.90234 0.46484 1.4219l-0.32422 1.875 1.707-0.89062c0.46484-0.24219 1.0156-0.24219 1.4805 0l1.707 0.89062-0.32422-1.875c-0.089844-0.51953 0.082031-1.0547 0.46094-1.4219l1.3633-1.3203-1.8906-0.27344c-0.51562-0.074219-0.96484-0.40234-1.1992-0.87109l-0.85938-1.7188-0.85156 1.7188c-0.23438 0.47266-0.68359 0.79688-1.207 0.87109z" fill="white"/>
 <path d="m54.574 32.562c-0.25781 0-0.51172-0.0625-0.74219-0.18359l-3.832-2-3.832 2c-0.53906 0.28125-1.1914 0.23438-1.6836-0.125s-0.73828-0.96484-0.63281-1.5664l0.73047-4.2305-3.0938-3h-0.003906c-0.4375-0.42578-0.59375-1.0625-0.40625-1.6406 0.1875-0.58203 0.6875-1.0039 1.293-1.0898l4.2812-0.61719 1.9141-3.8555v-0.003906c0.26953-0.54297 0.82422-0.88672 1.4336-0.88672s1.1641 0.34375 1.4336 0.88672l1.9141 3.8555 4.2812 0.61719v0.003906c0.60547 0.085938 1.1055 0.50781 1.293 1.0898 0.1875 0.57812 0.03125 1.2148-0.40625 1.6406l-3.0938 3 0.73047 4.2305h-0.003906c0.082031 0.46484-0.046876 0.94531-0.35156 1.3047-0.30469 0.35937-0.75 0.57031-1.2227 0.57031zm-4.5742-5.5938c0.25781 0 0.51172 0.0625 0.74219 0.18359l1.707 0.89062-0.32422-1.875h-0.003906c-0.089844-0.51953 0.085937-1.0547 0.46484-1.4219l1.3633-1.3203-1.8906-0.27344c-0.51953-0.074219-0.97266-0.39844-1.207-0.87109l-0.85156-1.7188-0.85156 1.7188c-0.23438 0.47266-0.6875 0.79688-1.207 0.87109l-1.8906 0.27344 1.3633 1.3203c0.37891 0.36719 0.55469 0.90234 0.46484 1.4219l-0.32422 1.875 1.707-0.89062h-0.003907c0.23047-0.12109 0.48438-0.18359 0.74219-0.18359z" fill="white"/>
 <path d="m64.227 32.562c-0.47266 0-0.92187-0.21094-1.2227-0.57031-0.30469-0.35938-0.43359-0.83984-0.35547-1.3047l0.73047-4.2305-3.0938-3c-0.4375-0.42578-0.59766-1.0625-0.41016-1.6406 0.19141-0.58203 0.69141-1.0039 1.2969-1.0898l4.2812-0.61719 1.9141-3.8555v-0.003906c0.26953-0.54297 0.82422-0.88672 1.4336-0.88672 0.60547 0 1.1602 0.34375 1.4297 0.88672l1.9141 3.8555 4.2812 0.61719 0.003907 0.003906c0.60156 0.085938 1.1016 0.50781 1.293 1.0898 0.1875 0.57812 0.027344 1.2148-0.41016 1.6406l-3.0938 3 0.73047 4.2305c0.10156 0.60156-0.14062 1.207-0.63281 1.5664-0.49219 0.35938-1.1445 0.40625-1.6836 0.125l-3.832-2-3.832 2c-0.23047 0.12109-0.48438 0.18359-0.74219 0.18359zm4.5742-5.5938c0.25781 0 0.51172 0.0625 0.73828 0.18359l1.707 0.89062-0.32422-1.875c-0.089844-0.51953 0.085937-1.0547 0.46484-1.4219l1.3633-1.3203-1.8906-0.27344c-0.52344-0.074219-0.97266-0.39844-1.207-0.87109l-0.85156-1.7188-0.85547 1.7188c-0.23047 0.46875-0.67969 0.79688-1.1992 0.87109l-1.8906 0.27344 1.3633 1.3203c0.37891 0.36719 0.55078 0.90234 0.46094 1.4219l-0.32422 1.875 1.707-0.89062c0.22656-0.12109 0.48047-0.18359 0.73828-0.18359z" fill="white"/>
 <path d="m39.121 91.602h-13.102 0.003907c-0.88281 0-1.6016-0.71875-1.6016-1.6016v-29.008c0-0.88281 0.71875-1.5977 1.6016-1.5977h13.102-0.003906c0.42578 0 0.83203 0.16797 1.1328 0.46875 0.30078 0.29688 0.46875 0.70703 0.46875 1.1289v29.008c0 0.42578-0.16797 0.83203-0.46875 1.1328-0.30078 0.29688-0.70703 0.46875-1.1328 0.46875zm-11.5-3.1992h9.8984l0.003907-25.809h-9.8984z" fill="white"/>
 <path d="m65.16 91.602h-17.398c-5.6523-0.007812-10.234-4.5898-10.242-10.242v-20.367c0-0.29688 0.085938-0.58984 0.24219-0.84375l2.9492-4.7305c0.33984-0.54297 0.65625-1.0352 0.9375-1.4688 1.5312-2.3633 2.1641-3.3438 2.1641-6.375v-2.9414l0.003906-0.003906c0-0.34766 0.11328-0.6875 0.32031-0.96484 0.15625-0.19922 1.5859-2.0156 4.0234-2.2422 1.7422-0.16406 3.4688 0.51953 5.1211 2.0234 2.0469 1.8633 3.0156 4.8242 2.8008 8.5625-0.078125 1.2617-0.26953 2.5117-0.57031 3.7383h13.367c3.6992 0 6.6953 2.9961 6.6992 6.6953 0.003906 1.5234-0.55078 2.9922-1.5586 4.1328 0.55859 0.84375 0.85547 1.832 0.85156 2.8398v0.99219c-0.003906 1.6797-0.71875 3.2773-1.9727 4.3945 0.42187 0.75391 0.64453 1.6055 0.64453 2.4727v0.88281c0 1.9375-0.96094 3.7461-2.5625 4.832 0.32812 0.71875 0.5 1.5039 0.5 2.293-0.003907 3.4883-2.832 6.3164-6.3203 6.3203zm-24.438-30.152v19.91c0.003906 3.8867 3.1523 7.0352 7.0391 7.0391h17.402c0.82813 0 1.6211-0.32813 2.207-0.91406 0.58594-0.58594 0.91406-1.3789 0.91406-2.207 0-0.66406-0.28906-1.2969-0.79297-1.7344-0.36328-0.30078-0.57422-0.75-0.57422-1.2227-0.003907-0.47266 0.20312-0.92187 0.5625-1.2266 0.21484-0.18359 0.47656-0.30469 0.75391-0.35547 1.2305-0.25 2.1133-1.332 2.1133-2.5859v-0.88281c0-0.60547-0.28906-1.1719-0.77734-1.5312-0.49219-0.33984-0.75-0.92578-0.67187-1.5195 0.074218-0.59375 0.47656-1.0938 1.0391-1.2969 1.0391-0.40234 1.7266-1.3984 1.7266-2.5117v-0.99219c0.003907-0.65234-0.32031-1.2578-0.86328-1.6172-0.46094-0.30469-0.73438-0.82422-0.72266-1.375 0.015625-0.55469 0.3125-1.0586 0.78906-1.3398 0.22266-0.13281 0.42969-0.29297 0.61328-0.47656 0.57812-0.57422 0.90234-1.3516 0.90234-2.168-0.003906-1.9297-1.5703-3.4922-3.5-3.4922h-15.582c-0.5625 0-1.0859-0.29688-1.3711-0.78125-0.28906-0.48047-0.30469-1.0781-0.039063-1.5742 0.17188-0.32812 0.85938-2.3516 1-4.7812 0.10547-1.9062-0.10938-4.5-1.7617-6-0.96094-0.875-1.8594-1.2773-2.668-1.1992-0.625 0.058594-1.1367 0.39844-1.4453 0.66406v2.3008c0 3.9805-1.0664 5.625-2.6797 8.1172-0.28516 0.44531-0.58594 0.89844-0.91016 1.4219z" fill="white"/>
 <path d="m71.676 68.062h-9.2617c-0.88281 0-1.6016-0.71875-1.6016-1.6016 0-0.88281 0.71875-1.6016 1.6016-1.6016h9.2617c0.88281 0 1.5977 0.71875 1.5977 1.6016 0 0.88281-0.71484 1.6016-1.5977 1.6016z" fill="white"/>
 <path d="m70.484 76.023h-9.2578c-0.88672 0-1.6016-0.71484-1.6016-1.5977 0-0.88281 0.71484-1.6016 1.6016-1.6016h9.2617-0.003906c0.88672 0 1.6016 0.71875 1.6016 1.6016 0 0.88281-0.71484 1.5977-1.6016 1.5977z" fill="white"/>
 <path d="m68.516 83.914h-9.2617c-0.88281 0-1.6016-0.71875-1.6016-1.6016s0.71875-1.5977 1.6016-1.5977h9.2617c0.88281 0 1.5977 0.71484 1.5977 1.5977s-0.71484 1.6016-1.5977 1.6016z" fill="white"/>
 <path d="m32.574 86.145c-1.7578 0-3.3438-1.0625-4.0195-2.6875-0.67188-1.625-0.30078-3.4961 0.94531-4.7383 1.2422-1.2461 3.1133-1.6172 4.7383-0.94531 1.625 0.67578 2.6875 2.2617 2.6875 4.0195-0.003906 2.4023-1.9492 4.3477-4.3516 4.3516zm0-5.5c-0.46484 0-0.88281 0.27734-1.0625 0.70703-0.17578 0.42969-0.078125 0.92578 0.25 1.2539s0.82422 0.42969 1.2539 0.25c0.42969-0.17969 0.71094-0.59766 0.71094-1.0625-0.003906-0.63672-0.51562-1.1484-1.1523-1.1484z" fill="white"/>
</svg>